<?xml version="1.0" encoding="UTF-8" standalone="no"?>
<svg
   version="1.1"
   width="217.2858"
   height="217.2858"
   id="svg98"
   viewBox="0 0 217.2858 217.2858"
   sodipodi:docname="05c5e2802bfeae4fd82eb7262b088ef3.cdr"
   xmlns:inkscape="http://www.inkscape.org/namespaces/inkscape"
   xmlns:sodipodi="http://sodipodi.sourceforge.net/DTD/sodipodi-0.dtd"
   xmlns="http://www.w3.org/2000/svg"
   xmlns:svg="http://www.w3.org/2000/svg">
  <defs
     id="defs102" />
  <sodipodi:namedview
     id="namedview100"
     pagecolor="#ffffff"
     bordercolor="#666666"
     borderopacity="1.0"
     inkscape:pageshadow="2"
     inkscape:pageopacity="0.0"
     inkscape:pagecheckerboard="0" />
  <g
     id="Layer1000"
     transform="translate(-391.9442,-192.2377)">
    <path
       d="M 391.9442,192.2377 V 409.5235 H 609.23 V 192.2377 Z"
       style="fill:#ffffff;fill-rule:evenodd"
       id="path2" />
    <g
       id="Layer1001">
      <path
         d="m 500.5871,201.668 a 99.2126,99.2126 0 0 1 99.2126,99.2126 99.2126,99.2126 0 1 1 -99.2126,-99.2126 z"
         style="fill:#ffdc00;fill-rule:evenodd"
         id="path4" />
      <path
         d="m 500.5871,205.1129 a 95.7677,95.7677 0 0 1 95.7677,95.7677 95.7677,95.7677 0 1 1 -95.7677,-95.7677 z"
         style="fill:#1b1918;fill-rule:evenodd"
         id="path6" />
      <path
         d="m 500.5871,236.4613 a 64.4193,64.4193 0 0 1 64.4193,64.4193 64.4193,64.4193 0 1 1 -64.4193,-64.4193 z"
         style="fill:#e7304b;fill-rule:evenodd"
         id="path8" />
      <path
         d="m 500.5871,239.2172 a 61.6634,61.6634 0 0 1 61.6634,61.6634 61.6634,61.6634 0 1 1 -61.6634,-61.6634 z"
         style="fill:#ffdc00;fill-rule:evenodd"
         id="path10" />
      <path
         d="m 500.5871,231.6385 c 38.2349,0 69.2421,31.0072 69.2421,69.2421 0,38.2349 -31.0072,69.2422 -69.2421,69.2422 -38.2349,0 -69.2421,-31.0073 -69.2421,-69.2422 0,-38.2349 31.0072,-69.2421 69.2421,-69.2421 z m 0,2.7836 c 36.6978,0 66.4585,29.7607 66.4585,66.4585 0,36.6978 -29.7607,66.4586 -66.4585,66.4586 -36.6978,0 -66.4585,-29.7608 -66.4585,-66.4586 0,-36.6978 29.7607,-66.4585 66.4585,-66.4585 z"
         style="fill:#ffdc00;fill-rule:evenodd"
         id="path12" />
      <g
         id="Layer1002">
        <path
           d="m 506.7722,244.6414 c -0.8466,1.268 -2.5907,2.4849 -4.3341,2.688 -1.345,1.0144 -2.6398,2.3832 -4.0345,3.1443 -0.1989,-0.9637 0.2993,-2.2317 0.4483,-3.3979 0.8883,-2.1314 2.6856,-2.4324 4.6197,-2.4356 h 0.0712 c 1.0817,0.002 2.2027,0.0914 3.2294,0.001 z"
           style="fill:#1b1918;fill-rule:evenodd"
           id="path14" />
        <path
           d="m 512.5008,245.605 c -0.2993,2.8907 -2.2416,5.5784 -4.7829,7.0998 -3.1865,1.3187 -6.7737,1.9779 -9.1146,4.8687 l -0.4482,-1e-4 c -0.6476,-3.0427 0.7468,-6.0347 3.3373,-7.8101 2.6892,-0.5579 5.0804,-1.7746 7.6714,-2.6875 1.1951,-0.3042 2.2416,-3.4994 3.337,-1.4708 z"
           style="fill:#1b1918;fill-rule:evenodd"
           id="path16" />
        <path
           d="m 485.0048,249.51 c -0.9465,2.8909 -0.4486,6.3901 0.6976,9.0271 1.3443,1.6227 2.5401,3.0934 4.3331,4.1076 0,-0.9637 -1.0461,-2.1299 -1.6933,-3.1442 -1.843,-3.8542 -1.4944,-7.9618 -1.1954,-12.4247 l 0.4982,-0.4565 c 1.6438,2.0284 1.9426,5.0712 3.7852,7.3028 3.8357,2.1805 4.5829,6.7955 4.085,10.9538 0.7965,4.26 3.287,7.81 3.3367,12.3742 l -0.4483,1.4708 c -0.4979,-0.9636 -0.9957,-2.2823 -1.6933,-3.398 -1.1454,-2.9921 -1.494,-6.3388 -3.3374,-9.0269 -1.195,-1.217 -1.3948,-3.0934 -3.1381,-3.8539 -0.6472,0.4564 0.4982,1.1156 -0.1993,1.6734 -1.9423,-0.1015 -2.4901,-2.0792 -4.0846,-2.891 -3.337,-1.9272 -6.6246,-4.716 -6.9236,-8.7729 0.2992,-1.8261 0.1497,-3.9052 1.8929,-5.1222 1.9426,-0.355 3.437,-1.6231 5.2804,-2.1809 0.6472,1.5726 -1.1462,2.7895 -1.1958,4.3615 z"
           style="fill:#1b1918;fill-rule:evenodd"
           id="path18" />
        <path
           d="m 496.461,246.8223 c 1.0965,2.8396 0,5.8825 0,8.7733 -3.4367,-2.6875 -7.6206,-5.7305 -7.4216,-10.4471 2.3408,0.9129 5.828,-0.9636 7.4216,1.6738 z"
           style="fill:#1b1918;fill-rule:evenodd"
           id="path20" />
        <path
           d="m 521.5664,247.8366 c -2.8398,2.4338 -5.6293,5.0715 -5.9771,8.9758 0.4975,1.674 -0.8477,2.8909 -0.4483,4.1589 4.6321,-3.7024 12.3019,-1.1666 15.5412,-7.303 1.0454,-1.2674 2.7883,0.3045 4.0337,0.7103 1.6941,1.9779 4.5332,2.9416 5.0316,5.8319 -1.4456,0.8622 -3.1885,-0.4567 -4.7829,-0.71 -4.7811,-0.9129 -7.222,4.7671 -12.2031,2.6877 -2.739,0.3553 -5.8272,0.8622 -7.1722,3.6513 -2.0928,4.3107 -2.6403,9.2301 -4.5336,13.6419 -0.498,0.355 -1.4437,0.3551 -1.8919,0 l -0.4987,-1.0144 c 3.1885,-4.6147 3.0877,-10.6498 5.0299,-15.8223 -1.5436,-0.7609 -2.589,1.2175 -4.083,1.2175 -1.5944,0.8109 -3.4382,2.1299 -4.2846,3.9043 0.2997,3.3981 0.15,6.948 1.8929,9.7375 v 1.724 c -1.7922,-0.3553 -3.3866,0.6592 -4.5324,-0.7609 2.441,-5.8318 -3.3874,-13.9965 4.0842,-17.0393 3.3867,-0.8116 5.9772,-3.7531 7.1727,-7.0492 l 0.1989,-8.5199 c 2.491,-0.0505 5.7783,-0.1018 7.4227,1.9779 z"
           style="fill:#1b1918;fill-rule:evenodd"
           id="path22" />
        <path
           d="m 478.7784,248.7997 c -1.7933,4.5136 -6.0774,7.962 -4.5327,13.845 0.4479,4.4628 4.4829,8.5199 8.6171,9.7368 4.0347,0.1018 5.5291,4.2096 7.372,7.0999 l 0.249,1.2172 -1.4444,-0.2533 c -2.7395,-2.1302 -5.4297,-5.5275 -9.5639,-4.8685 -5.7278,-2.7388 -9.2649,-8.3679 -10.2612,-14.3523 0.1002,-3.9556 0.5983,-8.2153 3.8357,-10.4976 1.544,-1.0143 3.4369,-0.9129 5.0308,-1.9272 z"
           style="fill:#1b1918;fill-rule:evenodd"
           id="path24" />
        <path
      
           id="path26" />
        <path
           d="m 512.5008,252.1977 c 0,2.0284 -1.7441,3.3473 -2.3913,5.1225 -2.7391,2.3831 -7.5212,1.8252 -8.6171,6.3389 -1.3947,5.2231 1.5934,9.8892 0.2482,14.808 l -0.2482,-1e-4 c 0.4976,-3.3467 -1.4944,-5.8824 -2.8891,-8.2661 -1.544,-3.1441 -2.2415,-8.0634 0,-11.2073 4.0342,-3.2461 9.4143,-3.1952 13.1495,-7.0492 0.2498,0 0.5975,-0.0507 0.748,0.2533 z"
           style="fill:#1b1918;fill-rule:evenodd"
           id="path28" />
        <path
           d="m 479.4756,258.7907 c 2.939,6.6941 11.8554,4.8684 13.8973,12.1713 1.1958,2.6368 1.8434,5.5784 1.893,8.7225 l -0.4482,0.5072 c -2.0423,-2.0287 -2.4909,-5.5278 -5.2801,-7.0493 -2.8888,-0.9129 -5.6786,-2.0285 -8.3687,-3.3978 -3.8849,-4.2091 -3.8351,-10.2945 -4.2834,-15.6198 1.6934,0.761 2.1916,2.8909 2.5901,4.6659 z"
           style="fill:#1b1918;fill-rule:evenodd"
           id="path30" />
        <path
           d="m 468.5171,266.0933 c 2.3911,3.55 6.2765,6.8971 8.1191,10.9543 0.2992,2.2311 -1.743,3.5493 -1.4445,5.8316 l -0.4981,0.4564 c -1.3942,-2.4341 -3.138,-5.1726 -4.7816,-7.7588 -1.1957,-0.9131 -2.5403,-1.4201 -3.7857,-2.181 -4.3337,-2.8396 -1.7929,-8.3167 -2.1916,-12.6782 -0.299,-1.1664 -0.498,-2.9415 0.2489,-3.9052 2.1417,2.5863 1.4446,6.7453 4.3335,9.2809 z"
           style="fill:#1b1918;fill-rule:evenodd"
           id="path32" />
        <path
           d="m 462.0418,258.9936 c -0.5477,4.6653 -2.4407,10.8016 1.6934,14.4022 2.1919,0.6089 4.3336,1.4201 5.2303,3.6518 -0.2989,0.9635 0.5479,1.724 0.2488,2.4338 -0.9961,0.051 -0.9961,-1.0143 -1.8921,-1.217 -2.9888,-1.6734 -6.1273,-2.8908 -9.8131,-2.6876 -1.1957,-0.4565 -1.3947,-1.7245 -1.6939,-2.6881 0,-0.6086 0.0498,-1.876 -0.2487,-2.6878 -0.648,-2.8401 -0.0497,-5.781 1.9426,-7.7588 1.7433,-1.0649 2.2412,-3.4992 4.5327,-3.4485 z"
           style="fill:#1b1918;fill-rule:evenodd"
           id="path34" />
        <path
           d="m 542.138,261.9349 c 0.8465,1.4708 3.3878,2.941 2.8891,4.8683 -4.7325,-1.4201 -10.5601,-2.4846 -15.5411,-0.9637 -2.4913,0.1019 -4.5818,1.268 -6.4759,2.6881 -2.6399,0.8111 -5.0807,2.5863 -6.9233,4.8682 -0.6475,0.1525 -0.548,1.3187 -1.4444,1.4201 -0.6976,-0.6592 0.3485,-1.1157 0,-1.9272 1.5441,-3.7018 4.0842,-7.6577 8.3677,-8.266 3.9846,-3.6007 9.365,-0.2028 13.8486,-1.978 1.7934,-0.1519 3.5855,-1.0142 5.2793,-0.7098 z"
           style="fill:#1b1918;fill-rule:evenodd"
           id="path36" />
        <path
           d="m 545.9728,268.7304 c -2.0914,1.4198 -5.0311,1.8258 -7.4216,3.1947 -3.5866,1.5218 -6.0769,-2.4846 -9.8124,-2.1805 -1.2455,-0.1013 -2.6899,0.152 -3.8346,-0.2534 3.5364,-3.094 9.2642,-3.2459 13.8964,-2.688 2.3905,0.6596 4.6324,1.623 7.1722,1.9272 z"
           style="fill:#1b1918;fill-rule:evenodd"
           id="path38" />
        <path
           d="m 453.9225,274.613 c 0.6478,1.5216 1.9425,2.5357 3.0886,3.3982 3.2872,0.2532 7.9698,-0.9636 9.8128,2.8903 1.8924,2.7386 4.2834,4.7167 7.6707,4.8688 0.1492,1.065 0.6473,1.9778 0.4484,3.1944 -1.9428,0.1528 -3.0883,-1.673 -5.031,-1.724 -3.8853,-2.789 -10.2611,0.6088 -13.8474,-2.8905 l -5.2802,-4.8689 c -0.5975,1.1156 0.5978,2.181 1.1959,3.1446 1.6933,3.9556 6.2758,3.7527 9.5635,5.3756 l 2.3909,0.2033 c 0.1991,1.1661 -1.0956,0.8108 -1.6439,1.2167 -5.7282,3.043 -9.8628,-2.1298 -14.3456,-4.3611 -0.7967,-2.8403 0.5483,-5.6804 -0.2489,-8.52 1.6933,-0.3551 1.3948,2.3831 2.6398,1.9267 -0.6473,-2.8396 -0.2985,-6.542 0.9465,-9.2298 0.4981,-0.5069 1.4944,-1.2168 1.6938,0 z"
           style="fill:#1b1918;fill-rule:evenodd"
           id="path40" />
        <path
           d="m 543.3334,274.1061 c 1.9923,-0.5578 3.2377,-2.7389 5.2804,-3.1441 -1.7933,2.7889 -3.5362,5.8316 -6.2265,8.0126 -3.6372,0.3547 -7.0238,-1.4706 -10.5109,-2.181 -3.5366,-0.5071 -7.4712,0.1014 -10.5593,-1.4707 -3.9849,-1.1155 -5.529,3.702 -8.8163,4.3616 1.1451,-2.8402 4.1839,-5.0713 6.4255,-7.303 9.0656,-5.9331 15.2421,7.303 24.4071,1.7246 z"
           style="fill:#1b1918;fill-rule:evenodd"
           id="path42" />
        <path
           d="m 555.0393,283.3356 0.746,5.1222 c -5.0803,-3.3975 -11.3061,-3.9552 -16.7354,-0.9636 -4.3832,-0.1015 -7.5713,-3.144 -11.0087,-5.5784 -0.9457,0.8115 0.5479,1.927 0.6976,2.8907 1.9926,3.3474 5.6286,4.7674 9.1149,5.6292 1.3451,0.9127 3.2882,1.0651 4.2842,2.4342 3.8349,5.0207 9.3147,7.0997 14.8436,8.5201 0.299,1.673 0.3482,3.4989 0.4482,5.3247 -1.9417,0.9132 -3.3373,-1.1665 -5.0311,-1.6742 -2.1423,-1.2159 -4.6324,-3.5491 -6.1761,-5.6284 -3.188,-2.1298 -4.2834,-5.8324 -8.3688,-6.0854 -4.3328,0.1515 -8.0192,-1.7754 -10.7582,-4.8688 -0.1008,-2.4343 -0.8969,-4.8683 -0.2498,-7.3027 -0.3485,-0.3551 -1.1458,-0.9635 -0.4982,-1.4707 3.6372,0.8115 6.9245,2.5357 11.0087,2.2313 5.1308,-0.7099 10.2115,-1.5215 14.3461,-4.6657 2.4898,1.2169 1.9922,4.1583 3.337,6.0855 z"
           style="fill:#1b1918;fill-rule:evenodd"
           id="path44" />
        <path
           d="m 445.3053,285.7701 c 2.3413,2.9921 5.2802,5.4773 8.3683,7.0998 6.0271,1.0142 10.6598,-3.0426 16.0389,-4.412 3.7361,-0.1521 6.0773,3.0934 9.5641,3.6513 0.5976,0.8116 1.544,0.4568 2.1419,1.2175 -1.1457,0.8112 -3.3377,-0.4059 -4.7823,0 -3.5364,-0.051 -7.6209,-0.1524 -10.5099,1.9774 l 0.6977,0.7102 c 4.5825,0.8112 9.2146,0.8112 13.399,-0.964 1.4448,1.2684 0.3482,3.7026 0,5.3255 -0.847,0.5578 -1.6939,-0.4568 -2.6403,-0.4568 -4.0843,0.3553 -7.9697,1.0652 -11.7051,2.1804 -9.4144,-1.4702 -9.4144,11.918 -18.4305,11.918 -1.1953,-0.1524 -2.6897,0.4568 -3.5864,-0.4564 0.8967,-2.8914 -1.4942,-4.3611 -1.4446,-6.8463 3.3874,0.8623 7.6215,1.7237 10.5603,-0.7101 3.337,-3.0429 5.728,-7.6576 9.7627,-9.9903 -0.8966,-1.0146 -2.2413,0.3044 -3.3376,-0.5072 -3.6359,0.3042 -8.816,2.6876 -11.7052,-0.9638 -0.498,-3.144 -3.0881,-5.5786 -2.8891,-8.773 z"
           style="fill:#1b1918;fill-rule:evenodd"
           id="path46" />
        <path
           d="m 555.7853,292.1092 c 2.1924,1.8258 2.6903,5.1222 2.1431,8.0637 l -0.4986,0.4563 c -2.0423,-4.6658 -8.0195,-2.7386 -11.2073,-6.0859 -2.0923,-1.5214 -4.8818,-2.992 -5.9772,-5.3247 1.1951,-0.5069 2.2416,0.7608 3.337,1.2171 3.6361,1.6225 8.2185,0.7611 12.203,1.6735 z"
           style="fill:#1b1918;fill-rule:evenodd"
           id="path48" />
        <path
           d="m 515.8386,290.8921 c -0.6483,1.7752 -0.3502,4.5644 -2.8896,4.8688 -1.7933,0.5578 -3.0384,-3.1949 -4.5336,-0.4568 -0.2981,1.0651 0.7976,3.7527 -0.9457,4.108 -1.195,-2.3837 -2.3913,-4.6654 -3.5856,-7.0491 0.995,-0.1014 2.1912,0.6589 3.3362,0.9637 1.6433,-1.0147 2.3413,-2.5866 4.0843,-3.3983 1.4952,0.3048 3.1384,0.3048 4.534,0.9637 z"
           style="fill:#1b1918;fill-rule:evenodd"
           id="path50" />
        <path
           d="m 530.8815,295.5069 c 3.4354,1.9269 6.4254,-1.6228 9.812,0.254 -4.1345,0.3039 -7.0237,5.4771 -11.9547,3.6512 -0.05,-0.8621 -0.9962,-0.5577 -1.4444,-0.9636 -1.6449,-3.347 -5.2797,-3.8546 -8.3681,-4.8688 0.2977,-1.0139 1.6932,-1.4705 2.6401,-1.9266 1.4941,0 2.5395,-2.0287 4.0831,-1.2174 1.3452,2.0288 3.0392,4.0062 5.232,5.0712 z"
           style="fill:#1b1918;fill-rule:evenodd"
           id="path52" />
        <path
           d="m 492.8746,292.8699 c 0.4983,0.1014 1.0462,0.4059 1.4448,0.9636 0.9465,0 1.7437,-1.8763 2.6398,-0.5068 -1.4943,2.2822 -2.5405,4.6145 -2.3905,7.556 -0.4482,0 -0.6479,-0.5069 -0.9465,-0.7098 -0.1992,-1.42 -1.7437,-2.7389 -0.4979,-4.1586 l -0.4982,-0.5074 c -0.648,0.254 -1.0962,1.0142 -1.6441,1.4707 -1.6932,0.5073 -2.9888,-0.6589 -3.8352,-1.6735 -0.1993,-0.8623 -0.498,-1.9269 -1.4444,-2.2309 -0.0997,-1.5219 1.7926,-1.0655 2.6398,-1.6739 1.6933,0.1015 3.6359,-0.5072 4.5324,1.4706 z"
           style="fill:#1b1918;fill-rule:evenodd"
           id="path54" />
        <path
           d="m 457.2598,299.1586 c -0.6972,1.3183 -2.59,0.811 -3.5862,1.9775 -1.9925,1.6735 -4.4829,3.7528 -7.4218,2.8915 -3.0384,-1.5725 -3.9848,-4.9202 -3.8357,-8.2667 l 0.2494,-0.254 c -0.6479,-0.4566 0.2487,-0.8112 0,-1.4199 l 0.4981,-0.7604 c 3.138,4.7666 8.6669,7.2008 14.0962,5.832 z"
           style="fill:#1b1918;fill-rule:evenodd"
           id="path56" />
        <path
           d="m 528.2906,301.1361 c 1.2457,0.8626 3.1376,1.4706 4.5327,0.4564 2.3902,-0.5068 3.8853,-3.9557 6.6748,-2.6371 1.5445,-0.6084 2.8892,0.9636 4.3328,1.4204 3.6372,3.7528 7.2238,8.1139 12.6524,8.5193 -3.586,1.5215 -6.9238,-0.5065 -10.0618,-1.6726 -2.3905,-1.9779 -5.4798,-4.2608 -8.3678,-2.6885 -1.943,2.4851 -4.8322,3.7019 -7.8702,2.9415 -2.7898,-1.2171 -5.4293,-2.9415 -8.1196,-4.4125 -0.1988,-2.4338 -1.4947,-4.6654 -1.6937,-6.7952 2.8888,1.065 5.0315,3.7527 7.9204,4.8683 z"
           style="fill:#1b1918;fill-rule:evenodd"
           id="path58" />
        <path
           d="m 479.9737,302.3529 c -0.199,2.1811 -1.7933,4.007 -3.5864,5.3251 -3.0383,1.2171 -6.027,0.2538 -9.0651,1.4706 -2.6405,2.3335 -4.0353,5.528 -5.9778,8.267 -1.2949,0.9127 -2.2414,2.1295 -3.8353,2.6873 -4.3336,2.9916 -8.0193,-1.4705 -11.7056,-2.8914 v -0.2527 c 7.6214,0.4067 14.1464,-3.5505 18.3801,-9.9898 2.2417,-1.5724 5.28,-0.9644 7.9199,-1.4721 2.5901,-0.3538 4.9313,-1.5207 6.9238,-3.3975 0.2992,0.0509 0.7474,-0.2029 0.9464,0.2535 z"
           style="fill:#1b1918;fill-rule:evenodd"
           id="path60" />
        <path
           d="m 534.0184,308.1845 c 2.0923,-0.1003 3.985,0.9641 5.0315,2.4351 0.0504,0.2533 -0.1501,0.3548 -0.2493,0.5065 0.2493,0.5076 0.5971,-0.1003 0.9469,0 2.6398,1.2691 4.7809,3.5505 7.1715,5.3262 -1.0955,0.3542 -1.5934,-0.6091 -2.3906,-0.9639 -4.1334,-3.0932 -9.3642,-0.3553 -13.8462,0 -1.5941,-0.3554 -3.3878,-0.1015 -4.5841,-1.471 -1.6425,-0.304 -2.8391,-1.6222 -4.2823,-2.435 -1.2959,-0.8614 -2.641,-1.7746 -4.0854,-2.4338 -0.1989,-2.2822 2.8388,-2.2822 3.5867,-4.1081 3.4863,2.8412 8.1689,5.7827 12.7013,3.144 z"
           style="fill:#1b1918;fill-rule:evenodd"
           id="path62" />
        <path
           d="m 554.0924,311.1261 c 1.1462,0.1527 2.3909,0.4062 2.8891,1.6742 -0.4982,4.2086 -3.7355,7.3527 -4.5829,11.2073 -0.5978,-2.0788 -0.647,-4.3109 -1.8929,-6.0855 -3.1878,-3.9549 -8.3678,-5.6792 -10.0615,-10.6996 l 0.2494,-0.9641 c 3.5855,3.7524 8.268,6.3899 13.3988,4.8677 z"
           style="fill:#1b1918;fill-rule:evenodd"
           id="path64" />
        <path
           d="m 482.6139,308.1845 c -0.1496,2.5365 -2.2915,3.2976 -4.0848,4.6158 -2.6397,1.0647 -5.7279,1.8262 -7.1725,4.6153 -0.8966,3.6003 1.1455,9.0266 -2.6403,11.7146 -3.1877,2.6873 -5.9772,5.2225 -8.8166,8.2664 0.9963,-3.6517 3.736,-6.5933 5.2303,-9.9911 4.7322,-4.2597 -3.0882,-14.3008 5.9773,-15.5688 3.2877,-1.1671 6.9735,-1.2674 9.3646,-4.6142 0.7973,-0.7612 1.8435,0.1516 2.142,0.962 z"
           style="fill:#1b1918;fill-rule:evenodd"
           id="path66" />
        <path
           d="m 505.5771,307.4755 c 1.2443,0 2.4405,0.7604 3.088,1.6731 -0.0503,2.0801 -1.893,3.3982 -3.5867,4.1594 -0.8468,1.3686 -2.3905,2.7882 -1.4436,4.6141 1.2443,2.6375 4.3324,2.0284 6.724,2.4346 2.888,0.6091 5.2797,-0.66 6.923,-2.9411 -0.4483,-0.2041 -0.1986,-0.7607 -0.249,-1.2171 l 0.2491,-0.2025 c 2.8391,1.8258 6.5754,2.18 9.0656,4.3607 0.5979,0.9633 1.3951,2.0287 2.3913,2.9416 2.3905,3.0938 6.0264,5.629 7.1726,9.2298 -0.0996,2.0786 -1.6437,3.6004 -1.4444,5.8313 -1.2455,2.4851 1.1951,4.1084 2.3917,5.8332 -1.1966,1.7746 -2.6903,2.3825 -4.2847,3.6506 l -0.6975,-0.4564 c -1.4941,-3.8033 -3.4359,-8.5706 -0.2486,-12.171 0.349,-1.876 1.1451,-3.8546 0,-5.6291 -1.5448,-3.094 -4.7822,-3.094 -6.7237,-5.8333 -2.0934,-0.8615 -3.8868,-2.4334 -5.7294,-3.9032 -0.2982,1.1156 0.7972,2.2313 1.4447,3.1946 3.5869,3.4479 11.3074,5.7812 8.6168,12.6273 -2.8388,4.5633 1.5947,10.3452 -1.9419,14.606 h -0.4487 c -0.2489,-2.0287 -1.444,-3.6517 -1.444,-5.8328 -1.3943,-1.0655 -0.9965,-3.144 -0.6979,-4.615 1.2455,-2.2308 0.6486,-5.4776 0.4483,-8.0128 -1.7431,-3.8534 -4.9308,-6.1869 -7.4217,-9.2796 -1.0957,-0.2538 -2.3908,-1.5721 -3.3374,-0.7102 0.8465,1.5207 2.4405,2.2313 3.5867,3.6517 2.0428,1.572 4.6321,2.2814 5.2793,5.1214 0.5984,4.0571 -2.0411,6.847 -1.4432,10.954 -0.3994,3.7531 1.394,6.5923 3.0884,9.4837 0.4483,0.9629 -0.5983,1.572 -1.1965,1.9273 -1.5944,0.3542 -2.092,-2.0797 -3.5867,-1.9273 -1.9924,3.0939 -5.3794,3.9557 -8.3682,5.1222 0.4991,-1.3691 1.1962,-2.5869 2.192,-3.6516 2.3912,-4.5132 4.1838,-9.3318 4.0349,-14.8587 -0.2993,-2.8914 -0.0996,-5.9344 -2.1411,-8.0637 -0.8969,-2.4351 -2.0931,-4.7161 -2.641,-7.3026 -1.743,-1.2682 -3.3866,0.6079 -5.4797,0 -3.5363,0.8104 -6.923,-3.2468 -9.8122,0.2538 -2.0919,0.3039 -4.2835,0.3039 -6.2261,0.9632 0.5479,1.9273 4.0842,3.1942 2.3909,5.3761 -1.9426,2.6876 -4.3335,4.9691 -5.9773,8.0117 -1.7437,1.7749 -2.4408,4.4124 -3.0884,6.8474 -0.1493,4.1069 1.1458,7.9615 1.1958,11.6633 -2.0422,-4.0062 -5.1312,-8.9259 -2.8895,-14.0983 -0.0993,-3.0939 -1.5937,-6.2884 -0.6972,-9.2801 2.8392,-2.9411 6.1269,-4.8696 7.4216,-8.7229 -0.3982,-0.4064 -0.9961,-1.1667 -1.4444,-0.5078 -1.7433,1.7248 -3.138,3.3477 -4.7818,4.615 -2.9389,2.5874 -2.2416,6.6441 -3.3374,9.9911 -0.6972,4.9702 -0.2987,10.4466 -3.1381,14.6048 -2.0421,-0.2026 -3.3373,-2.231 -5.4791,-2.1796 -1.1454,-0.6091 -2.4409,-1.4209 -3.1384,-2.6881 -0.3981,-0.66 -0.1494,-1.6228 -0.1992,-2.4346 2.6898,-2.1298 7.1727,-4.0069 7.3723,-8.0128 1.3451,-3.1444 0.1492,-7.2525 1.6933,-10.2441 -0.2987,-0.5574 -0.6972,0 -0.9465,0.2531 -1.5441,1.7757 -1.0957,4.4129 -2.3905,6.3393 0,2.1812 -1.8431,3.6517 -1.9427,5.8317 -1.9928,2.8914 -4.3833,4.87 -7.3719,6.3394 0.2985,-1.7237 2.2908,-2.6878 3.0881,-4.1574 3.2375,-5.5791 5.7284,-11.766 4.2838,-18.9668 1.3943,-5.9343 8.4678,-6.0354 10.5598,-11.2086 0.3987,-0.8621 1.3452,-0.8621 1.8931,-0.2533 0.8965,1.1163 1.7934,2.1807 1.8929,3.6516 -0.3489,4.4625 -5.1807,7.6576 -7.8704,10.4466 l 0.2489,0.2539 c 2.1416,-1.5207 4.782,-1.8772 6.9236,-3.3979 3.3379,-1.7745 7.771,0.6593 11.0083,-1.4709 1.5449,-0.9128 3.2878,-1.876 3.5868,-3.9044 -1.6441,-3.8033 -7.5217,-2.2313 -7.9199,-7.0499 2.1916,-1.7745 5.0803,0.5578 6.9734,-1.9261 1.9923,0.6592 3.8853,1.1661 5.9776,0.253 z"
           style="fill:#1b1918;fill-rule:evenodd"
           id="path68" />
        <path
           d="m 523.7077,314.2712 c 5.1811,3.2455 11.5057,3.448 16.7365,6.3385 2.3918,2.2321 3.3867,5.3261 2.8892,8.5205 -0.9966,3.4481 4.0842,5.8325 0.6976,8.7729 -0.8968,0.8116 -1.1951,2.3323 -2.3913,2.6378 -0.3481,-4.9189 0.7476,-11.0043 -2.3906,-15.0615 -4.0848,-5.4775 -10.8085,-5.5289 -16.239,-8.2679 -2.4409,-1.5207 -5.5782,-3.3465 -6.6741,-6.0854 l 0.199,-0.7597 c 2.7898,0.4568 4.9811,2.6881 7.1727,3.9048 z"
           style="fill:#1b1918;fill-rule:evenodd"
           id="path70" />
        <path
           d="m 464.6817,315.996 c -0.2985,2.5349 -2.0919,5.0702 -0.747,7.7574 0.548,4.3109 -4.234,5.7832 -4.5332,9.7376 -1.1952,1.268 -0.7469,3.2968 -1.1952,4.8684 -2.0421,-0.4563 -2.4407,-2.2309 -3.0883,-3.9044 -0.0495,-3.0425 0.747,-5.629 2.1418,-8.0128 -1.2947,-0.8116 -2.4407,0.2029 -3.8349,-0.5064 -2.0925,-1.2693 -3.7361,-2.4848 -5.4797,-4.1081 2.8392,-0.2025 5.9275,1.3691 9.0659,0.4564 3.4369,-0.4055 4.9313,-4.7165 7.6706,-6.2881 z"
           style="fill:#1b1918;fill-rule:evenodd"
           id="path72" />
        <path
           d="m 551.0044,324.7178 c -0.5972,3.6517 -2.5906,6.6947 -4.5829,9.7372 -2.2408,-5.0713 0.1997,-13.0841 -6.1762,-15.5692 -1.0958,-0.5575 -2.2912,-1.2681 -2.8891,-2.4335 4.5829,2.6364 13.1002,0.8619 13.6482,8.2655 z"
           style="fill:#1b1918;fill-rule:evenodd"
           id="path74" />
        <path
           d="m 535.4632,325.732 c 4.2343,2.6375 4.8313,7.9615 4.0349,12.8817 0.1994,1.2166 1.743,2.4346 0.4975,3.6504 -0.7464,0.7103 -1.6433,0.8129 -2.3905,0.2538 -4.1346,-4.5134 2.192,-11.1567 -2.6405,-15.5687 -0.7962,-1.4201 -2.5895,-2.3829 -3.0882,-3.9044 1.5438,0.5577 2.1924,1.7757 3.5868,2.6872 z"
           style="fill:#1b1918;fill-rule:evenodd"
           id="path76" />
        <path
           d="m 515.3396,332.5281 c 0.2989,1.1654 0.5975,2.9913 -0.4483,3.9044 -0.8964,3.3466 -1.1458,6.9983 -1.6937,10.4474 -0.0996,-4.4121 -1.2947,-8.3677 -3.5856,-11.9172 -1.3451,-1.7757 -3.3374,-3.5502 -4.0349,-5.376 2.8383,-0.7607 3.9845,-3.1445 5.7275,-5.3253 2.7899,1.9269 -0.8966,7.6576 4.035,8.2667 z"
           style="fill:#1b1918;fill-rule:evenodd"
           id="path78" />
        <path
           d="m 498.4036,329.5867 c -1.5936,3.4479 -4.9311,5.6792 -3.5859,9.9898 2.2416,2.131 5.4293,5.1226 3.7856,9.0274 -0.4982,1.8768 -0.7472,3.9052 -1.6441,5.5786 0.3987,1.0655 -0.7472,1.4706 -0.4982,2.435 -0.8464,-1.7761 -0.249,-4.5135 -1.4441,-6.3394 0,-1.0154 -1.3947,-1.3695 -1.3947,-2.4349 l -4.7818,-4.8688 c -0.5478,-1.5207 0.7472,-3.0927 1.6434,-4.1081 2.4409,-3.0418 4.7325,-6.1356 4.7821,-10.2429 1.1951,-0.0514 2.3909,-0.0514 3.1377,0.9633 z"
           style="fill:#1b1918;fill-rule:evenodd"
           id="path80" />
        <path
           d="m 502.9368,330.0932 c -1.3951,1.5719 -1.9926,3.5502 -3.3373,5.1226 0,1.6221 -1.0954,3.3979 0,4.8684 1.8929,2.9928 6.9733,2.8902 7.1726,7.0495 -0.0996,3.9048 -2.1916,7.2011 -5.7776,8.5194 l -1.8929,1.7236 c -1.1959,-1.5207 0.1989,-3.5495 0.6967,-5.1211 0.548,-2.4338 2.0924,-5.3757 0.4983,-7.8103 -1.3947,-2.9916 -5.1304,-5.5277 -3.3374,-9.2295 1.0458,-1.775 1.6441,-3.7019 3.0885,-5.3765 0.8469,-0.3027 2.2416,-0.557 2.8891,0.2539 z"
           style="fill:#1b1918;fill-rule:evenodd"
           id="path82" />
        <path
           d="m 504.1324,330.0932 c 2.7894,7.2011 9.0652,13.4903 7.6204,21.9082 -0.0992,0.913 -1.0454,1.521 -1.1951,2.4338 -1.0957,1.4208 -2.7895,1.5223 -4.0341,2.688 -0.2993,-0.0501 -0.798,0.1532 -0.9465,-0.253 1.9418,-4.2597 4.2339,-9.23 2.589,-14.0983 -1.9418,-2.9416 -4.8811,-3.9557 -5.728,-7.5561 0.0505,-1.8259 0.7977,-3.3983 1.1967,-5.1226 z"
           style="fill:#1b1918;fill-rule:evenodd"
           id="path84" />
        <path
           d="m 494.3194,354.1825 c 0.3486,0.7603 0.3486,1.9782 0,2.6877 -0.5975,0.253 -0.7968,-0.5065 -1.1951,-0.7095 -1.8929,-0.4564 -4.8818,0.1516 -5.2804,-2.435 -0.3986,-3.7527 -0.0496,-7.8099 -1.1951,-11.2078 2.092,3.9057 5.2798,7.9119 7.6706,11.6646 z"
           style="fill:#1b1918;fill-rule:evenodd"
           id="path86" />
      </g>
      <path
         d="m 427.4039,288.8969 -0.8284,-0.2376 c -0.1795,-0.0515 -0.3136,-0.1313 -0.4013,-0.2432 -0.0926,-0.1092 -0.14,-0.2467 -0.1507,-0.4109 l -0.0341,-0.3858 c -0.0188,-0.2078 -0.0744,-0.3601 -0.1616,-0.4595 -0.092,-0.0967 -0.2656,-0.1835 -0.5251,-0.2581 l -12.0229,-3.4474 c -0.2672,-0.0766 -0.4641,-0.0959 -0.5896,-0.0616 -0.1228,0.0391 -0.2467,0.1399 -0.3767,0.3052 l -0.248,0.3172 c -0.0961,0.1335 -0.2082,0.2214 -0.3446,0.2649 -0.1314,0.0407 -0.2875,0.0373 -0.4669,-0.0142 l -0.8285,-0.2376 1.7681,-6.1659 0.8285,0.2375 c 0.1794,0.0515 0.3114,0.1388 0.3969,0.2584 0.0882,0.1245 0.1329,0.2861 0.1403,0.4906 l 0.022,0.4279 c 0.004,0.2449 0.0518,0.4239 0.1445,0.5331 0.0916,0.113 0.2638,0.2038 0.5196,0.277 l 12.6605,3.6304 1.2612,-4.3983 c 0.1237,-0.4315 0.1208,-0.8537 -0.0113,-1.2718 -0.1283,-0.4169 -0.3697,-0.7712 -0.723,-1.0668 -0.0769,-0.0633 -0.1837,-0.1517 -0.3216,-0.2616 -0.4869,-0.3916 -0.6764,-0.7682 -0.5712,-1.1348 l 0.2047,-0.7139 4.4135,1.2655 c -0.0382,0.1337 -0.105,0.3376 -0.1953,0.6093 -0.3984,1.2163 -0.6675,2.0687 -0.8066,2.5535 z m 4.6692,-15.6633 -0.768,-0.3913 c -0.1664,-0.0847 -0.2828,-0.1886 -0.3475,-0.3153 -0.0701,-0.1249 -0.0903,-0.2689 -0.0696,-0.4321 l 0.0401,-0.3852 c 0.0212,-0.2076 -0.004,-0.3677 -0.0708,-0.482 -0.072,-0.1123 -0.2257,-0.2308 -0.4663,-0.3534 l -11.1441,-5.6782 c -0.2513,-0.1281 -0.4373,-0.1828 -0.5671,-0.173 -0.1279,0.015 -0.2688,0.0903 -0.428,0.2277 l -0.304,0.2641 c -0.1198,0.1127 -0.2465,0.1776 -0.3887,0.1942 -0.1368,0.015 -0.2894,-0.0182 -0.4557,-0.1029 l -0.7679,-0.3913 4.369,-8.5748 c 0.119,-0.2336 0.2725,-0.561 0.4604,-0.9825 0.1861,-0.4178 0.3833,-0.8745 0.5842,-1.374 l 3.8043,1.9384 -0.2794,0.5486 c -0.1172,0.23 -0.2392,0.3819 -0.373,0.4607 -0.1286,0.0773 -0.3454,0.1095 -0.642,0.0965 -0.6463,-0.044 -1.1602,0.0463 -1.5351,0.2744 -0.3782,0.2262 -0.7243,0.6516 -1.0417,1.2744 l -1.4678,2.8808 5.1811,2.64 0.7033,-1.3803 c 0.1226,-0.2406 0.1952,-0.4622 0.2164,-0.6698 0.0246,-0.2059 -0.004,-0.3855 -0.0813,-0.5407 l -0.2483,-0.4921 c -0.0194,-0.041 -0.0403,-0.0873 -0.0612,-0.1337 -0.1733,-0.3423 -0.2103,-0.6109 -0.1075,-0.8126 l 0.3588,-0.7042 4.2715,2.1764 -0.3589,0.7043 c -0.1063,0.2089 -0.3525,0.3419 -0.7421,0.4064 -0.0497,0.0103 -0.08,0.0172 -0.0906,0.0207 l -0.5762,0.0809 c -0.1813,0.0323 -0.3437,0.1146 -0.494,0.2519 -0.1467,0.1393 -0.283,0.3284 -0.4057,0.569 l -0.7033,1.3802 5.496,2.8003 2.0755,-4.0733 c 0.2037,-0.3999 0.2833,-0.8184 0.2334,-1.2541 -0.0465,-0.4338 -0.2159,-0.8276 -0.5062,-1.1851 -0.0634,-0.0769 -0.1513,-0.1841 -0.2658,-0.3181 -0.4032,-0.4773 -0.5174,-0.8833 -0.3442,-1.223 l 0.3373,-0.6618 4.0095,2.043 z m 3.0655,-22.5014 c 1.8374,1.5973 3.4725,2.5134 4.9081,2.7509 1.4351,0.2318 2.6454,-0.216 3.633,-1.3521 0.9928,-1.142 1.2705,-2.406 0.8411,-3.7948 -0.4349,-1.3886 -1.5697,-2.8801 -3.4073,-4.4774 -1.8344,-1.5947 -3.4665,-2.5084 -4.896,-2.7406 -1.4352,-0.2318 -2.645,0.2216 -3.6379,1.3637 -0.9823,1.1301 -1.2574,2.3908 -0.828,3.7798 0.4323,1.3915 1.5584,2.8809 3.387,4.4705 z m -2.4208,2.7847 c -2.0324,-1.7667 -3.1867,-3.7805 -3.4635,-6.0473 -0.2767,-2.2668 0.385,-4.3175 1.9824,-6.1551 1.6025,-1.8435 3.5439,-2.7873 5.824,-2.8313 2.2773,-0.0467 4.4353,0.8188 6.4736,2.5907 2.0415,1.7745 3.2021,3.7992 3.4763,6.069 0.2798,2.2694 -0.3817,4.3258 -1.979,6.1632 -1.5921,1.8315 -3.5339,2.7698 -5.8201,2.8086 -2.2858,0.0444 -4.4523,-0.8232 -6.4937,-2.5978 z m 18.3367,-7.394 -0.4943,-0.706 c -0.1071,-0.1529 -0.1612,-0.2994 -0.1589,-0.4416 -0.003,-0.1431 0.0465,-0.2798 0.1415,-0.4141 l 0.2163,-0.3213 c 0.1139,-0.1767 0.1665,-0.33 0.1614,-0.462 -0.009,-0.1298 -0.0909,-0.3098 -0.2457,-0.5309 l -7.174,-10.2454 c -0.1686,-0.2408 -0.3107,-0.3886 -0.421,-0.4423 -0.1159,-0.0545 -0.2549,-0.0591 -0.4248,-0.0178 l -0.3368,0.0661 c -0.1646,0.028 -0.2993,0.0157 -0.4128,-0.0357 -0.1126,-0.057 -0.2252,-0.1624 -0.3345,-0.3185 l -0.4944,-0.706 3.9823,-2.7885 12.0501,4.9111 c -0.1266,-0.1393 -0.2614,-0.2972 -0.4055,-0.4822 -0.1442,-0.1852 -0.3434,-0.4627 -0.6077,-0.8401 l -3.8364,-5.4789 c -0.1504,-0.2148 -0.289,-0.3506 -0.4126,-0.4094 -0.1246,-0.0532 -0.2931,-0.0516 -0.5112,0.004 l -0.3465,0.0729 c -0.1763,0.046 -0.3328,0.0441 -0.4728,-0.003 -0.1367,-0.0498 -0.259,-0.1484 -0.3592,-0.2915 l -0.4944,-0.7061 3.9661,-2.777 0.4943,0.706 c 0.1048,0.1497 0.1588,0.2961 0.1653,0.437 0.001,0.1398 -0.0455,0.2743 -0.1404,0.4086 l -0.1998,0.3242 c -0.1203,0.1812 -0.1796,0.3391 -0.172,0.4743 0.006,0.1409 0.0865,0.3176 0.237,0.5325 l 8.6501,12.3536 -1.3438,0.9409 -15.6271,-6.3774 c 0.325,0.3882 0.5675,0.679 0.7195,0.8683 0.1543,0.1926 0.2701,0.3443 0.3499,0.4582 l 5.6862,8.1208 c 0.1548,0.2212 0.2957,0.3602 0.4149,0.4126 0.1223,0.05 0.2844,0.0529 0.4893,0.006 l 0.3759,-0.0934 c 0.1698,-0.0413 0.3176,-0.0381 0.4465,0.007 0.1255,0.0479 0.2446,0.1487 0.3517,0.3016 l 0.4944,0.706 z m 16.0765,-10.7622 -0.3089,-0.8047 c -0.067,-0.1743 -0.0839,-0.3295 -0.0473,-0.4668 0.0314,-0.1398 0.1128,-0.2603 0.2374,-0.3677 l 0.2876,-0.2594 c 0.1547,-0.1402 0.2429,-0.2761 0.2698,-0.4056 0.0218,-0.1317 -0.0132,-0.3225 -0.11,-0.5746 l -4.4823,-11.6766 c -0.101,-0.2633 -0.2027,-0.4284 -0.3055,-0.508 -0.1052,-0.0745 -0.2603,-0.1129 -0.4705,-0.1172 l -0.4027,-0.007 c -0.1644,0.004 -0.302,-0.033 -0.4188,-0.1157 -0.1116,-0.0805 -0.2029,-0.2072 -0.2697,-0.3815 l -0.3089,-0.8047 8.9845,-3.4487 c 0.2447,-0.094 0.5779,-0.2347 0.9995,-0.4221 0.4178,-0.1859 0.87,-0.3935 1.3535,-0.6302 l 1.5301,3.9861 -0.5747,0.2207 c -0.2411,0.0925 -0.4332,0.1237 -0.5855,0.0928 -0.1472,-0.0286 -0.3298,-0.1498 -0.5416,-0.3579 -0.4508,-0.4651 -0.8932,-0.7419 -1.3243,-0.8233 -0.4325,-0.0849 -0.9744,-4e-4 -1.627,0.2502 l -3.0184,1.1586 2.0838,5.4287 1.4462,-0.5551 c 0.2521,-0.0968 0.4545,-0.2129 0.609,-0.353 0.1562,-0.1365 0.2549,-0.2893 0.3014,-0.4562 l 0.1447,-0.5318 c 0.0132,-0.0435 0.0286,-0.0919 0.0441,-0.1403 0.1002,-0.3704 0.2524,-0.5947 0.4638,-0.6758 l 0.7379,-0.2833 1.7179,4.4756 -0.7378,0.2833 c -0.2188,0.084 -0.4908,0.0182 -0.8235,-0.1946 -0.0439,-0.0256 -0.0709,-0.0407 -0.0812,-0.0453 l -0.4823,-0.3254 c -0.1565,-0.0974 -0.3321,-0.1448 -0.5356,-0.1433 -0.2022,0.005 -0.4301,0.0545 -0.6822,0.1513 l -1.4462,0.5551 2.2104,5.7587 4.268,-1.6384 c 0.419,-0.1609 0.7582,-0.4186 1.0126,-0.7758 0.2557,-0.3534 0.3934,-0.7595 0.4169,-1.2194 0.004,-0.0996 0.0106,-0.2381 0.0153,-0.4143 0.0198,-0.6245 0.2065,-1.0025 0.5625,-1.1391 l 0.6935,-0.2662 1.6127,4.2011 z m 15.2485,-5.576 -0.849,-4.8151 0.6101,-0.1076 c 0.4029,-0.071 0.8444,0.1455 1.3212,0.6543 0.1353,0.1495 0.2494,0.2706 0.3345,0.3646 0.6131,0.6179 1.2322,1.041 1.8534,1.2702 0.6251,0.2286 1.2957,0.2798 2.0113,0.1536 0.931,-0.1641 1.6577,-0.5948 2.173,-1.2866 0.5145,-0.6957 0.6959,-1.4738 0.5441,-2.3343 -0.1835,-1.0404 -1.3594,-1.7406 -3.5235,-2.097 -0.2989,-0.0481 -0.528,-0.0885 -0.6822,-0.1177 -1.9099,-0.3327 -3.3023,-0.8414 -4.1734,-1.5268 -0.8748,-0.6845 -1.4242,-1.6727 -1.6518,-2.9634 -0.2592,-1.4708 -0.0205,-2.7469 0.7145,-3.8162 0.739,-1.0702 1.8278,-1.734 3.2712,-1.9885 0.618,-0.109 1.2709,-0.1111 1.9588,-0.007 0.6873,0.1008 1.0666,0.1469 1.137,0.1344 0.0586,-0.0103 0.1087,-0.0232 0.1504,-0.0386 0.0416,-0.0154 0.0787,-0.0341 0.1151,-0.0566 l 0.242,-0.1597 c 0.1013,-0.0662 0.2047,-0.1207 0.3132,-0.1681 0.1086,-0.0474 0.2239,-0.0799 0.3373,-0.0998 l 0.4693,-0.0827 0.8083,4.5843 -0.6062,0.1069 c -0.4067,0.0717 -0.7857,-0.156 -1.149,-0.6848 -0.0723,-0.1122 -0.1326,-0.2024 -0.1757,-0.2634 -0.4485,-0.6226 -0.9325,-1.0576 -1.4482,-1.3054 -0.5155,-0.248 -1.0882,-0.3163 -1.7218,-0.2046 -0.7198,0.1269 -1.2746,0.4344 -1.6637,0.9264 -0.3898,0.4884 -0.5289,1.0492 -0.4186,1.6751 0.1643,0.9309 1.1952,1.5396 3.0975,1.8293 l 0.0627,0.0132 c 0.053,0.003 0.1563,0.0168 0.3014,0.0395 1.7637,0.2578 3.0369,0.5939 3.8172,1.0168 0.7738,0.4081 1.386,0.9292 1.8334,1.5683 0.4468,0.6351 0.7504,1.4204 0.9146,2.3515 0.2966,1.6818 0.004,3.1531 -0.876,4.4093 -0.8835,1.2567 -2.1581,2.0341 -3.8321,2.3292 -0.708,0.1249 -1.4984,0.1029 -2.3633,-0.0673 -0.8649,-0.17 -1.3305,-0.2493 -1.4008,-0.237 -0.0665,0.0118 -0.1382,0.0405 -0.2147,0.0864 -0.0735,0.0412 -0.1219,0.086 -0.1464,0.1306 l -0.1569,0.2536 c -0.0496,0.0853 -0.1278,0.1677 -0.2387,0.2478 -0.1148,0.0807 -0.2196,0.1274 -0.3172,0.1446 z m 23.4083,-2.2704 0.1496,-0.8488 c 0.0325,-0.1839 0.0978,-0.3256 0.2,-0.4245 0.0988,-0.1036 0.2307,-0.165 0.3929,-0.1929 l 0.38,-0.0742 c 0.2055,-0.0444 0.3512,-0.1156 0.4409,-0.2125 0.0858,-0.0979 0.1547,-0.2834 0.2016,-0.5493 l 2.1719,-12.3173 c 0.0511,-0.2894 0.055,-0.4944 0.0149,-0.6105 -0.0433,-0.1205 -0.1383,-0.222 -0.2876,-0.3128 l -0.285,-0.1914 c -0.1361,-0.0967 -0.2227,-0.2007 -0.2666,-0.3173 -0.0393,-0.1198 -0.0445,-0.2741 -0.0114,-0.4617 l 0.1497,-0.8488 4.7877,0.8441 5.0481,11.9934 c 0.009,-0.1881 0.0252,-0.395 0.0541,-0.6278 0.029,-0.2327 0.0844,-0.5699 0.1644,-1.0236 l 1.1615,-6.5869 c 0.0454,-0.2582 0.0434,-0.4522 -0.002,-0.5813 -0.0505,-0.1258 -0.1708,-0.2438 -0.3643,-0.3586 l -0.2965,-0.1935 c -0.1573,-0.0922 -0.2665,-0.2042 -0.3319,-0.3367 -0.0615,-0.132 -0.0782,-0.2881 -0.0479,-0.4602 l 0.1497,-0.8487 4.7681,0.8407 -0.1497,0.8487 c -0.0317,0.18 -0.0971,0.3218 -0.1921,0.4259 -0.0982,0.0997 -0.2261,0.1618 -0.3883,0.1896 l -0.3704,0.0881 c -0.2133,0.043 -0.3668,0.1127 -0.4571,0.2137 -0.0951,0.1042 -0.1634,0.2858 -0.209,0.544 l -2.6188,14.8519 -1.6154,-0.2848 -6.5406,-15.5596 c -0.0446,0.5044 -0.0788,0.8814 -0.1053,1.1228 -0.027,0.2453 -0.0524,0.4344 -0.0765,0.5714 l -1.7214,9.7631 c -0.047,0.2658 -0.0456,0.4638 0.002,0.585 0.0511,0.1219 0.1636,0.2386 0.3416,0.3506 l 0.3318,0.1997 c 0.1493,0.0909 0.2514,0.1977 0.3104,0.321 0.0549,0.1225 0.0678,0.278 0.0354,0.4619 l -0.1497,0.8488 z m 18.2869,3.7913 0.3505,-0.7874 c 0.0759,-0.1706 0.1736,-0.2923 0.2967,-0.3635 0.1209,-0.0766 0.2638,-0.1043 0.4279,-0.0921 l 0.3867,0.0199 c 0.2085,0.0103 0.367,-0.0235 0.4776,-0.0961 0.1085,-0.0777 0.2187,-0.2373 0.3286,-0.4841 l 5.0871,-11.426 c 0.1148,-0.2576 0.1596,-0.4462 0.1431,-0.5753 -0.0217,-0.1271 -0.1042,-0.2638 -0.2498,-0.4155 l -0.2796,-0.2897 c -0.1189,-0.1138 -0.1902,-0.237 -0.2144,-0.3781 -0.0219,-0.1358 0.003,-0.2899 0.079,-0.4604 l 0.3507,-0.7874 8.7916,3.9142 c 0.2396,0.1067 0.5746,0.2429 1.0052,0.4084 0.4269,0.164 0.8934,0.337 1.4027,0.5115 l -1.7366,3.9006 -0.5624,-0.2504 c -0.2359,-0.105 -0.3939,-0.2189 -0.4798,-0.3484 -0.0838,-0.1243 -0.1271,-0.3391 -0.1299,-0.636 0.0102,-0.6477 -0.1069,-1.1563 -0.3542,-1.5186 -0.2457,-0.3659 -0.6887,-0.6892 -1.3274,-0.9736 l -2.9535,-1.315 -2.3652,5.3122 1.4151,0.63 c 0.2468,0.1099 0.4718,0.1708 0.6802,0.1811 0.2069,0.0138 0.3848,-0.0244 0.5357,-0.1094 l 0.4784,-0.2739 c 0.0401,-0.0214 0.0853,-0.0448 0.1304,-0.0681 0.3328,-0.1909 0.599,-0.242 0.8058,-0.1498 l 0.7221,0.3215 -1.9499,4.3794 -0.722,-0.3215 c -0.2142,-0.0953 -0.36,-0.334 -0.4448,-0.7197 -0.0129,-0.0492 -0.0213,-0.079 -0.0254,-0.0895 l -0.1109,-0.5711 c -0.0418,-0.1795 -0.1325,-0.3373 -0.2775,-0.4801 -0.1467,-0.1393 -0.3427,-0.2657 -0.5894,-0.3754 l -1.4152,-0.6302 -2.5088,5.6351 4.1764,1.8594 c 0.41,0.1826 0.8322,0.2402 1.2646,0.1675 0.4308,-0.0691 0.8151,-0.2589 1.157,-0.5676 0.0734,-0.0673 0.1758,-0.1608 0.3038,-0.2821 0.4555,-0.4276 0.8549,-0.5628 1.2033,-0.4076 l 0.6786,0.302 -1.8304,4.1111 z m 27.0249,13.8857 c -1.5818,-0.4484 -2.965,-0.9174 -4.1449,-1.4138 -1.182,-0.4931 -2.1769,-1.025 -2.9838,-1.59 -1.0802,-0.7563 -1.9271,-1.548 -2.5439,-2.3775 -0.6167,-0.8296 -1.0531,-1.7507 -1.3021,-2.7591 -0.3181,-1.3186 -0.3355,-2.6303 -0.0632,-3.9329 0.2744,-1.3061 0.8365,-2.566 1.6862,-3.7796 0.6494,-0.9272 1.4532,-1.7221 2.4105,-2.3899 0.9584,-0.6624 1.9965,-1.1476 3.1184,-1.4482 1.1718,-0.3092 2.2795,-0.3676 3.3197,-0.1775 1.0401,0.1902 2.0592,0.6321 3.0581,1.3316 0.8263,0.5787 1.4738,1.2744 1.9477,2.0863 0.4718,0.8151 0.7158,1.2285 0.7352,1.2421 0.0488,0.0342 0.0934,0.0605 0.125,0.0778 0.0283,0.015 0.0565,0.0299 0.0775,0.0348 l 0.3563,0.0798 c 0.1873,0.0439 0.3262,0.0879 0.4147,0.1207 0.0918,0.0353 0.1604,0.0687 0.2125,0.1052 l 0.3709,0.2597 -2.67,3.8131 -0.5629,-0.3941 c -0.2927,-0.205 -0.4148,-0.557 -0.3713,-1.0552 0.0136,-0.0681 0.0169,-0.1142 0.0175,-0.143 0.1127,-1.1234 0.0438,-2.0638 -0.2121,-2.8201 -0.2559,-0.7562 -0.7114,-1.366 -1.3654,-1.8239 -1.1809,-0.827 -2.4815,-0.957 -3.9016,-0.3901 -1.4224,0.5702 -2.7641,1.7593 -4.0307,3.5683 -1.31,1.8709 -1.952,3.6323 -1.9336,5.2889 0.0184,1.6565 0.6876,2.9445 2.0085,3.8694 0.7808,0.5468 1.5161,0.7707 2.2037,0.6752 0.6876,-0.0956 1.2898,-0.5125 1.8047,-1.248 l 0.2871,-0.4098 c 0.1435,-0.2051 0.2161,-0.3918 0.2256,-0.5646 0.008,-0.1783 -0.0488,-0.3735 -0.1694,-0.5889 l -0.2281,-0.3877 c -0.0941,-0.1774 -0.1344,-0.3414 -0.1288,-0.4876 0.009,-0.1442 0.065,-0.2939 0.1722,-0.4468 l 0.5011,-0.7159 4.0247,2.8182 c -0.2959,0.3117 -0.5718,0.6227 -0.8288,0.9276 -0.2549,0.3015 -0.4821,0.5982 -0.6826,0.8845 -0.4488,0.6409 -0.7155,1.1329 -0.7983,1.4726 -0.0795,0.342 -0.0294,0.6583 0.1512,0.9543 l 0.2189,0.3521 c 0.0729,0.1384 0.1099,0.2516 0.1057,0.3408 -0.005,0.0836 -0.053,0.2005 -0.1446,0.3449 z m 10.5361,-0.5769 0.7036,0.8094 c 0.9147,1.0521 1.7667,1.6692 2.5508,1.8506 0.7841,0.1816 1.5552,-0.0574 2.3167,-0.7192 0.8093,-0.7035 1.1971,-1.4564 1.166,-2.2609 -0.0311,-0.8045 -0.491,-1.715 -1.377,-2.7343 l -0.7948,-0.9142 z m -10.5354,2.7431 0.6505,-0.5655 c 0.1409,-0.1225 0.2808,-0.1915 0.4224,-0.2041 0.1421,-0.0182 0.2832,0.017 0.4268,0.0973 l 0.342,0.1816 c 0.1877,0.0948 0.3456,0.1312 0.4764,0.1122 0.1283,-0.022 0.2986,-0.1227 0.5023,-0.2999 l 9.4365,-8.203 c 0.2077,-0.1909 0.3336,-0.3426 0.3808,-0.4519 0.0444,-0.1124 0.0486,-0.2528 0.007,-0.4218 l -0.08,-0.3041 c -0.0365,-0.163 -0.0379,-0.3039 0.007,-0.4275 0.0394,-0.1238 0.1295,-0.2442 0.2614,-0.3589 l 0.6505,-0.5655 4.3829,5.042 c 1.4696,1.6907 2.2632,3.227 2.3808,4.6036 0.1178,1.3765 -0.4351,2.599 -1.664,3.6674 -0.9863,0.8573 -2.0184,1.244 -3.1081,1.165 -1.084,-0.0786 -2.1161,-0.6181 -3.0966,-1.6129 0.2366,0.6837 0.1812,1.5949 -0.1737,2.7245 -0.0321,0.0961 -0.051,0.1652 -0.0654,0.2093 l -1.1064,3.5827 c -0.155,0.4873 -0.2477,0.8469 -0.2815,1.0866 -0.0335,0.2398 -0.0286,0.4513 0.0152,0.6289 l 0.1089,0.5369 c 0.0483,0.1949 0.0567,0.3561 0.0249,0.4888 -0.0314,0.1273 -0.0983,0.2381 -0.1972,0.324 l -0.6325,0.5499 -2.7413,-3.1535 1.4903,-4.7635 c 0.5708,-1.8014 0.8661,-3.0054 0.8911,-3.6061 0.0282,-0.6033 -0.1103,-1.0776 -0.41,-1.4223 -0.0365,-0.042 -0.0652,-0.075 -0.0916,-0.0993 -0.0264,-0.0244 -0.0533,-0.0432 -0.0801,-0.0619 l -4.0108,3.4865 c -0.2009,0.1745 -0.3183,0.324 -0.3579,0.4479 -0.0371,0.1268 -0.0208,0.297 0.0514,0.5131 l 0.1087,0.3371 c 0.0641,0.1705 0.0816,0.3238 0.0468,0.4594 -0.0352,0.1411 -0.12,0.2674 -0.255,0.3847 l -0.6505,0.5655 z m 20.7607,11.9811 c -2.1694,1.1054 -3.6312,2.2782 -4.3892,3.5203 -0.7525,1.2438 -0.7907,2.5337 -0.1072,3.8749 0.6869,1.3483 1.7547,2.0792 3.2034,2.2014 1.4504,0.1169 3.2583,-0.3765 5.4278,-1.4818 2.1658,-1.1035 3.6242,-2.2746 4.375,-3.5129 0.7526,-1.2438 0.7853,-2.5355 0.0984,-3.8838 -0.6798,-1.3342 -1.7457,-2.0615 -3.1945,-2.1836 -1.452,-0.1206 -3.2549,0.3655 -5.4137,1.4655 z m -1.6751,-3.2877 c 2.3994,-1.2225 4.6991,-1.5384 6.9045,-0.9459 2.2054,0.5926 3.8589,1.9745 4.9643,4.1438 1.109,2.1765 1.2567,4.3299 0.4433,6.4606 -0.8097,2.129 -2.4205,3.8055 -4.827,5.0317 -2.4101,1.228 -4.7222,1.5458 -6.9293,0.9496 -2.209,-0.5907 -3.8678,-1.9742 -4.9732,-4.1437 -1.1017,-2.1622 -1.2443,-4.314 -0.4237,-6.4483 0.8151,-2.136 2.4311,-3.8197 4.8411,-5.0478 z m -0.1087,20.4907 4.6999,-1.3477 0.1708,0.5956 c 0.1127,0.3933 -0.0564,0.855 -0.5126,1.3824 -0.1346,0.1502 -0.2431,0.2763 -0.3276,0.3707 -0.5503,0.6744 -0.9066,1.3343 -1.0696,1.9761 -0.1619,0.6455 -0.1428,1.3178 0.0576,2.0163 0.2605,0.9088 0.7647,1.5864 1.5066,2.0266 0.7457,0.439 1.5385,0.538 2.3784,0.2971 1.0155,-0.2912 1.5889,-1.534 1.7173,-3.7235 0.0165,-0.3022 0.0327,-0.5341 0.0456,-0.6907 0.1313,-1.9341 0.4916,-3.3722 1.0822,-4.3101 0.5894,-0.9415 1.5147,-1.5911 2.7745,-1.9525 1.4357,-0.4116 2.7297,-0.3075 3.8701,0.3117 1.1414,0.623 1.9154,1.6366 2.3194,3.0454 0.173,0.6032 0.2434,1.2523 0.2114,1.9475 -0.0283,0.694 -0.0345,1.0759 -0.0148,1.1447 0.0164,0.0572 0.0345,0.1058 0.0542,0.1456 0.0198,0.0398 0.0421,0.0747 0.0683,0.1085 l 0.184,0.224 c 0.0766,0.0938 0.1416,0.1908 0.2001,0.2939 0.0585,0.103 0.1027,0.2143 0.1344,0.325 l 0.1314,0.4581 -4.4747,1.2831 -0.1697,-0.5917 c -0.1139,-0.3971 0.0729,-0.7977 0.5608,-1.2144 0.1042,-0.0836 0.1876,-0.153 0.2438,-0.2021 0.5722,-0.5113 0.9543,-1.0381 1.1468,-1.5768 0.1927,-0.5387 0.2008,-1.1153 0.0235,-1.7339 -0.2015,-0.7024 -0.5652,-1.222 -1.0953,-1.5576 -0.5264,-0.3366 -1.0986,-0.4164 -1.7096,-0.2411 -0.9087,0.2604 -1.4063,1.3494 -1.4956,3.2716 l -0.007,0.0637 c 0.003,0.053 -3e-4,0.1572 -0.008,0.304 -0.0721,1.7808 -0.2732,3.0822 -0.6123,3.9024 -0.3249,0.8123 -0.7792,1.4756 -1.3681,1.9873 -0.5848,0.5107 -1.3341,0.8949 -2.2428,1.1555 -1.6417,0.4707 -3.1355,0.333 -4.4768,-0.4103 -1.3422,-0.7472 -2.2484,-1.9336 -2.7169,-3.5677 -0.1983,-0.6912 -0.259,-1.4794 -0.1803,-2.3573 0.0789,-0.8779 0.109,-1.3493 0.0893,-1.418 -0.0186,-0.0649 -0.0547,-0.1331 -0.1083,-0.2044 -0.0486,-0.0688 -0.0982,-0.1124 -0.1452,-0.132 l -0.2686,-0.1295 c -0.09,-0.0404 -0.1801,-0.1095 -0.2714,-0.2115 -0.0922,-0.1058 -0.1496,-0.205 -0.1769,-0.3004 z"
         style="fill:#ffffff;fill-rule:evenodd"
         id="path89" />
      <g
         id="Layer1003">
        <path
           d="m 422.7975,303.3456 0.2483,3.5495 -0.4734,0.0332 c -0.107,0.007 -0.1935,-0.008 -0.2573,-0.0436 -0.0641,-0.0382 -0.1143,-0.0963 -0.1505,-0.1767 l -0.0975,-0.2016 c -0.0512,-0.1077 -0.1089,-0.1794 -0.1727,-0.213 -0.0638,-0.0357 -0.1698,-0.0472 -0.3204,-0.0367 l -4.1975,0.2936 c -0.5824,0.0407 -1.0083,0.0966 -1.2773,0.1697 -0.269,0.0711 -0.5027,0.1774 -0.6971,0.3142 -0.3077,0.2085 -0.5394,0.4995 -0.6952,0.8751 -0.1557,0.3755 -0.2165,0.7896 -0.1849,1.2421 0.0283,0.4031 0.1267,0.7752 0.2968,1.109 0.168,0.3341 0.3907,0.6027 0.6654,0.7991 0.2335,0.1731 0.5287,0.2898 0.8814,0.3456 0.3523,0.056 0.8569,0.0609 1.5116,0.0152 l 4.0381,-0.2824 c 0.1418,-0.01 0.243,-0.0359 0.3056,-0.0806 0.0649,-0.0448 0.1122,-0.1215 0.1481,-0.2353 l 0.0637,-0.1867 c 0.0282,-0.0946 0.0718,-0.1639 0.1299,-0.2106 0.0582,-0.0442 0.1419,-0.0714 0.2487,-0.0789 l 0.4735,-0.0331 0.184,2.6327 -0.4734,0.0331 c -0.1069,0.007 -0.1933,-0.005 -0.257,-0.0414 -0.064,-0.0355 -0.1165,-0.0959 -0.1577,-0.1855 l -0.0892,-0.1761 c -0.0509,-0.103 -0.1062,-0.1702 -0.1655,-0.204 -0.0593,-0.0313 -0.1696,-0.0425 -0.3267,-0.0315 l -4.2345,0.2961 c -0.7899,0.0552 -1.4146,0.0231 -1.8769,-0.0985 -0.4621,-0.1194 -0.8836,-0.3456 -1.2661,-0.6741 -0.3916,-0.3327 -0.7037,-0.7515 -0.9341,-1.2564 -0.2305,-0.5049 -0.3663,-1.0685 -0.4101,-1.6954 -0.096,-1.3718 0.2003,-2.4323 0.8891,-3.1792 0.6888,-0.7467 1.7642,-1.1701 3.2236,-1.2722 l 4.0382,-0.2823 c 0.1506,-0.0105 0.2541,-0.0367 0.3122,-0.0812 0.0584,-0.0442 0.1057,-0.1209 0.1415,-0.2348 l 0.0637,-0.1869 c 0.0284,-0.0943 0.0717,-0.1661 0.1342,-0.213 0.0602,-0.0492 0.1415,-0.0762 0.244,-0.0834 z m -8.3943,12.885 0.4642,-0.0988 c 0.1005,-0.0212 0.1868,-0.0153 0.2591,0.02 0.074,0.0326 0.1337,0.0923 0.1828,0.1762 l 0.1196,0.1942 c 0.0667,0.1043 0.1344,0.1695 0.2032,0.1984 0.0682,0.0266 0.1774,0.0251 0.3229,-0.006 l 6.7362,-1.4318 c 0.1583,-0.0337 0.2635,-0.0754 0.3139,-0.1222 0.052,-0.0498 0.0831,-0.124 0.0972,-0.2261 l 0.0362,-0.1984 c 0.0199,-0.0961 0.0541,-0.1661 0.1039,-0.2154 0.0525,-0.0475 0.13,-0.0831 0.2325,-0.105 l 0.4644,-0.0986 0.6012,2.8287 -5.0168,5.3561 c 0.0976,-0.0352 0.2064,-0.0704 0.3313,-0.1041 0.1246,-0.0338 0.3081,-0.0752 0.5562,-0.128 l 3.6023,-0.7656 c 0.1413,-0.0301 0.2396,-0.0727 0.2953,-0.1257 0.0532,-0.0547 0.0875,-0.1465 0.1042,-0.2781 l 0.0345,-0.2054 c 0.0131,-0.1067 0.0467,-0.191 0.0999,-0.2556 0.0538,-0.0621 0.1299,-0.1048 0.224,-0.1247 l 0.4641,-0.0988 0.5989,2.8171 -0.4643,0.0987 c -0.0983,0.0209 -0.1845,0.0151 -0.2581,-0.0151 -0.0719,-0.0331 -0.1309,-0.0906 -0.1801,-0.1743 l -0.1245,-0.1861 c -0.0678,-0.1088 -0.1364,-0.1787 -0.2072,-0.2072 -0.0735,-0.0302 -0.1807,-0.0292 -0.3219,8e-4 l -8.1224,1.7265 -0.2029,-0.9544 6.5103,-6.9444 c -0.2662,0.0832 -0.4655,0.1449 -0.5941,0.1819 -0.1307,0.0374 -0.2323,0.0639 -0.3072,0.0798 l -5.3394,1.1348 c -0.1455,0.031 -0.2457,0.0741 -0.2973,0.1261 -0.0511,0.0544 -0.0863,0.1416 -0.105,0.2639 l -0.0302,0.2262 c -0.0141,0.1021 -0.0463,0.1814 -0.0964,0.2404 -0.0505,0.0566 -0.127,0.0969 -0.2275,0.1183 l -0.4642,0.0986 z m 2.9854,11.4685 0.4515,-0.1467 c 0.0976,-0.0317 0.1839,-0.0349 0.2596,-0.007 0.0769,0.0248 0.1427,0.078 0.2001,0.1561 l 0.135,0.1674 c 0.083,0.0998 0.1604,0.1614 0.2318,0.183 0.072,0.0238 0.1786,0.0115 0.3159,-0.0331 l 6.5496,-2.1282 c 0.1373,-0.0445 0.2307,-0.0973 0.2792,-0.1602 0.047,-0.06 0.0715,-0.1547 0.0759,-0.2829 l 0.0129,-0.208 c 0.002,-0.1074 0.0251,-0.1919 0.0706,-0.2564 0.0487,-0.063 0.1203,-0.1112 0.2161,-0.1422 l 0.4513,-0.1467 1.1492,3.5369 -0.4515,0.1466 c -0.0914,0.0298 -0.1786,0.0308 -0.2562,0.004 -0.0784,-0.0293 -0.149,-0.0833 -0.2121,-0.1648 l -0.1349,-0.1672 c -0.0787,-0.1011 -0.1543,-0.1636 -0.2278,-0.1844 -0.0762,-0.0224 -0.1826,-0.0102 -0.32,0.0344 l -6.5496,2.1281 c -0.1373,0.0446 -0.2306,0.0973 -0.275,0.159 -0.0451,0.0592 -0.0715,0.1549 -0.08,0.2842 l -0.0108,0.2146 c -0.003,0.1032 -0.0264,0.1876 -0.0707,0.2566 -0.0469,0.0674 -0.1159,0.1172 -0.2095,0.1476 l -0.4514,0.1467 z m 9.7133,2.7746 c 0.0736,-0.0768 0.1274,-0.1551 0.1653,-0.2313 0.0347,-0.0778 0.0527,-0.1556 0.0549,-0.2367 l 0.003,-0.2135 c 3e-4,-0.0208 7e-4,-0.0416 0.002,-0.0602 -0.003,-0.1722 0.0557,-0.2835 0.1716,-0.3351 l 0.5034,-0.2242 1.5001,3.3694 -0.4556,0.2028 c -0.0818,0.0365 -0.1565,0.0516 -0.2209,0.0466 -0.0674,-0.006 -0.1266,-0.0315 -0.1794,-0.0804 l -0.2763,-0.2546 c -0.0233,-0.0259 -0.0609,-0.0402 -0.1115,-0.046 -0.0485,-0.007 -0.0932,10e-5 -0.1311,0.0169 -0.048,0.0214 -0.0962,0.0479 -0.1451,0.0827 -0.0513,0.0357 -0.0955,0.0761 -0.1387,0.1186 l -3.3645,3.7351 c -0.118,0.1275 -0.2258,0.2401 -0.3244,0.3411 -0.1017,0.0996 -0.2013,0.1931 -0.2989,0.2753 0.1255,-0.0196 0.2617,-0.0363 0.4058,-0.0462 0.145,-0.0129 0.3068,-0.0202 0.4865,-0.0253 l 4.9949,0.0133 c 0.0655,0.002 0.1251,-0.004 0.1828,-0.0142 0.0559,-0.009 0.1066,-0.0241 0.1485,-0.0428 0.05,-0.0222 0.0922,-0.0564 0.1256,-0.1051 0.0315,-0.0476 0.0481,-0.0963 0.0499,-0.1462 l -0.002,-0.2577 c 2e-4,-0.0104 0.001,-0.0239 0.003,-0.0405 0.002,-0.1821 0.0569,-0.2967 0.1608,-0.3431 l 0.5155,-0.2294 1.157,2.5987 -0.4556,0.2028 c -0.0859,0.0382 -0.1615,0.0564 -0.2299,0.0532 -0.0664,-0.004 -0.1227,-0.0281 -0.1707,-0.0713 l -0.227,-0.2249 c -0.0793,-0.0758 -0.2114,-0.1308 -0.3916,-0.1644 -0.1812,-0.0306 -0.4539,-0.0463 -0.8211,-0.0378 l -8.4665,-0.0194 -0.3517,-0.79 z m -2.7632,13.5031 0.4025,-0.2515 c 0.0871,-0.0544 0.1702,-0.0783 0.2502,-0.0699 0.0807,0.005 0.1572,0.041 0.2321,0.103 l 0.1788,0.1417 c 0.0964,0.0762 0.1824,0.1145 0.2569,0.1181 0.0749,5e-4 0.1753,-0.0372 0.3014,-0.1159 l 5.8403,-3.6494 c 0.1316,-0.0823 0.2095,-0.156 0.24,-0.2225 0.0276,-0.0674 0.0291,-0.1601 0.005,-0.2815 l -0.0473,-0.2324 c -0.0228,-0.0943 -0.0201,-0.1768 0.0105,-0.2515 0.0299,-0.0718 0.0879,-0.1359 0.1751,-0.1904 l 0.4024,-0.2515 3.0337,4.855 c 0.0826,0.1322 0.202,0.3111 0.3586,0.5365 0.155,0.2234 0.3263,0.4647 0.5177,0.7213 l -1.9938,1.2458 -0.194,-0.3106 c -0.0815,-0.1302 -0.1231,-0.2379 -0.1253,-0.3284 -0.003,-0.0874 0.0404,-0.2035 0.1277,-0.3445 0.1981,-0.302 0.2938,-0.582 0.2837,-0.8376 -0.008,-0.2567 -0.1235,-0.5607 -0.3438,-0.9135 l -1.0192,-1.631 -2.7152,1.6967 0.4884,0.7815 c 0.0851,0.1362 0.1743,0.2419 0.271,0.3181 0.0947,0.0773 0.191,0.1202 0.2886,0.1318 l 0.3103,0.0344 c 0.0254,0.004 0.0541,0.008 0.0827,0.0125 0.2159,0.0237 0.3585,0.0909 0.4298,0.2051 l 0.2491,0.3986 -2.2386,1.3989 -0.2492,-0.3987 c -0.0739,-0.1183 -0.0722,-0.2809 0.002,-0.4917 0.009,-0.0277 0.0133,-0.0446 0.0145,-0.0509 l 0.1175,-0.3074 c 0.0336,-0.099 0.0373,-0.2044 0.0105,-0.3214 -0.0285,-0.1161 -0.0845,-0.2426 -0.1696,-0.3788 l -0.4883,-0.7815 -2.8803,1.7998 1.4411,2.3061 c 0.1415,0.2265 0.3261,0.3981 0.5545,0.5117 0.2264,0.1148 0.4668,0.1568 0.7222,0.1283 0.0552,-0.007 0.132,-0.0158 0.2294,-0.0291 0.3452,-0.0458 0.5765,0.027 0.6966,0.2194 l 0.2342,0.3747 -2.1014,1.313 z m 11.6665,7.5913 0.3926,0.5028 c 0.5107,0.6535 0.9894,1.053 1.433,1.1981 0.4436,0.1451 0.8833,0.0473 1.3212,-0.2947 0.4653,-0.3636 0.6915,-0.7771 0.6806,-1.2423 -0.0109,-0.4652 -0.2646,-1.0137 -0.7591,-1.6467 l -0.4437,-0.5677 z m -6.0041,1.0359 0.3739,-0.2922 c 0.081,-0.0633 0.1612,-0.0957 0.2416,-0.0957 0.0808,-0.003 0.1607,0.0244 0.2415,0.0783 l 0.1926,0.1221 c 0.1059,0.0645 0.1953,0.0934 0.2698,0.0893 0.0729,-0.006 0.1703,-0.0553 0.2877,-0.1468 l 5.4249,-4.2385 c 0.1196,-0.0993 0.1923,-0.1803 0.22,-0.2408 0.0261,-0.0624 0.0296,-0.1432 0.007,-0.2426 l -0.0429,-0.1795 c -0.0194,-0.0958 -0.0192,-0.1769 0.008,-0.2457 0.0236,-0.0695 0.0756,-0.1341 0.1514,-0.1933 l 0.374,-0.2922 2.4467,3.1315 c 0.8204,1.0501 1.2582,1.9763 1.3136,2.7755 0.0555,0.7993 -0.2685,1.4751 -0.9751,2.0271 -0.5669,0.443 -1.1561,0.6124 -1.7741,0.5106 -0.6147,-0.1013 -1.1964,-0.4655 -1.7447,-1.0895 0.1284,0.4063 0.0896,0.9284 -0.1212,1.5609 -0.0189,0.0538 -0.0303,0.0927 -0.0388,0.1172 l -0.6577,2.007 c -0.0921,0.2729 -0.1477,0.4752 -0.1687,0.6116 -0.0212,0.1364 -0.02,0.2586 0.003,0.3631 l 0.0573,0.315 c 0.0259,0.1147 0.0293,0.2081 0.0102,0.283 -0.019,0.0717 -0.0578,0.132 -0.1146,0.1766 l -0.3637,0.284 -1.5302,-1.9586 0.8853,-2.6676 c 0.339,-1.0084 0.5165,-1.687 0.5359,-2.0318 0.0208,-0.3461 -0.0538,-0.6265 -0.2211,-0.8406 -0.0204,-0.0261 -0.0363,-0.0466 -0.0512,-0.0619 -0.0149,-0.0155 -0.0299,-0.0276 -0.045,-0.0399 l -2.3059,1.8015 c -0.1154,0.0903 -0.1833,0.1703 -0.2069,0.2396 -0.022,0.0713 -0.0142,0.1701 0.025,0.2984 l 0.0589,0.1997 c 0.035,0.1017 0.0437,0.1909 0.0228,0.2672 -0.0212,0.0794 -0.0704,0.1479 -0.1479,0.2084 l -0.374,0.2922 z m 7.2591,8.6762 1.8701,-1.9366 0.2652,0.256 c 0.1749,0.1691 0.234,0.448 0.1738,0.8367 -0.0193,0.1121 -0.0334,0.2049 -0.0454,0.2753 -0.0612,0.4882 -0.0322,0.9175 0.0849,1.286 0.1187,0.3702 0.3337,0.7054 0.6448,1.0057 0.4044,0.3906 0.8565,0.5992 1.3515,0.6242 0.4964,0.0233 0.9118,-0.138 1.246,-0.4841 0.404,-0.4186 0.3023,-1.2008 -0.3052,-2.3438 -0.0843,-0.1575 -0.1474,-0.2793 -0.1891,-0.362 -0.528,-1.0145 -0.7928,-1.8388 -0.793,-2.4713 -0.002,-0.6341 0.2488,-1.2099 0.7502,-1.729 0.5712,-0.5916 1.2316,-0.8842 1.9747,-0.875 0.7448,0.011 1.4308,0.3177 2.0579,0.9232 0.2686,0.2594 0.5014,0.5693 0.6984,0.9298 0.1986,0.359 0.3124,0.5541 0.343,0.5836 0.0256,0.0247 0.0491,0.0444 0.0708,0.0593 0.0218,0.015 0.0433,0.0266 0.0663,0.0368 l 0.158,0.0643 c 0.0659,0.0272 0.127,0.0589 0.187,0.0955 0.0598,0.0365 0.1155,0.0811 0.1647,0.1288 l 0.204,0.1968 -1.7804,1.8438 -0.2635,-0.2545 c -0.1767,-0.1706 -0.2086,-0.4233 -0.0992,-0.7646 0.0249,-0.07 0.0444,-0.1274 0.0566,-0.1673 0.1216,-0.4116 0.146,-0.7803 0.0747,-1.1045 -0.0713,-0.3242 -0.2438,-0.6183 -0.5192,-0.8843 -0.3126,-0.3019 -0.6482,-0.4679 -1.0084,-0.4964 -0.3585,-0.0301 -0.6608,0.0822 -0.9038,0.334 -0.3616,0.3744 -0.2702,1.0586 0.2745,2.0559 l 0.0163,0.0339 c 0.0176,0.0261 0.048,0.0798 0.0891,0.156 0.51,0.921 0.8102,1.6337 0.8966,2.1396 0.0905,0.4979 0.0728,0.955 -0.0566,1.3715 -0.1278,0.4146 -0.3741,0.8091 -0.7358,1.1835 -0.6531,0.6764 -1.4207,1.0053 -2.2994,0.9866 -0.8804,-0.0201 -1.6835,-0.379 -2.4109,-1.0815 -0.3076,-0.2971 -0.5783,-0.6799 -0.8086,-1.1456 -0.2302,-0.4656 -0.3598,-0.7123 -0.3903,-0.7419 -0.029,-0.0279 -0.0673,-0.0528 -0.1152,-0.0746 -0.0446,-0.0219 -0.082,-0.0307 -0.1109,-0.0281 l -0.1699,0.006 c -0.0561,0.004 -0.1211,-0.007 -0.1965,-0.0345 -0.0772,-0.0291 -0.1354,-0.064 -0.178,-0.105 z m 7.0218,6.6333 0.2986,-0.3689 c 0.0647,-0.0799 0.1354,-0.1296 0.2138,-0.1476 0.078,-0.0213 0.1621,-0.0124 0.2529,0.0218 l 0.2042,0.067 c 0.124,0.0384 0.2225,0.0479 0.2942,0.0271 0.0734,-0.0194 0.1559,-0.0876 0.2468,-0.1998 l 4.334,-5.352 c 0.0908,-0.1121 0.1404,-0.2071 0.1468,-0.2863 0.007,-0.0761 -0.0243,-0.1689 -0.0906,-0.2787 l -0.1023,-0.1815 c -0.057,-0.091 -0.0836,-0.1745 -0.0804,-0.2535 0.007,-0.0793 0.0404,-0.1588 0.1037,-0.2369 l 0.2987,-0.3689 2.89,2.3404 -0.2986,0.3688 c -0.0605,0.0748 -0.1331,0.1231 -0.2129,0.1429 -0.0818,0.0182 -0.1703,0.0112 -0.2675,-0.0227 l -0.2043,-0.0668 c -0.1211,-0.0418 -0.2185,-0.053 -0.2914,-0.0306 -0.0762,0.0228 -0.1589,0.091 -0.2496,0.2031 l -4.3339,5.3521 c -0.0909,0.1121 -0.1405,0.2071 -0.1441,0.2829 -0.005,0.0744 0.0243,0.1689 0.0876,0.2821 l 0.1078,0.1859 c 0.0534,0.0882 0.08,0.1717 0.0806,0.2537 -0.003,0.0822 -0.0334,0.1614 -0.0953,0.2378 l -0.2987,0.3689 z m 8.053,4.666 c 0.0433,0.0333 0.0956,0.0699 0.1518,0.1091 0.0563,0.0391 0.1404,0.0962 0.2533,0.1696 1.0839,0.7039 2.0745,0.9612 2.9738,0.7786 0.8981,-0.186 1.6968,-0.8172 2.3937,-1.8903 0.6729,-1.0362 0.9238,-1.9997 0.755,-2.8892 -0.1699,-0.8926 -0.75,-1.6604 -1.7409,-2.3039 -0.0573,-0.0374 -0.1846,-0.1147 -0.3835,-0.2334 -0.1098,-0.0609 -0.1915,-0.1088 -0.245,-0.1435 z m -2.9693,-0.6897 0.2584,-0.398 c 0.0561,-0.0862 0.1212,-0.143 0.1973,-0.1692 0.0753,-0.0293 0.1598,-0.0293 0.2538,-0.005 l 0.222,0.0529 c 0.121,0.0265 0.2148,0.0248 0.2839,-0.003 0.0671,-0.0294 0.1419,-0.1059 0.2242,-0.2325 l 3.7496,-5.7739 c 0.0846,-0.1302 0.1239,-0.2298 0.1236,-0.303 -0.004,-0.0727 -0.0402,-0.1592 -0.1148,-0.2571 l -0.1409,-0.1906 c -0.0607,-0.0758 -0.093,-0.1517 -0.0969,-0.2325 -0.003,-0.0776 0.0222,-0.1602 0.0781,-0.2464 l 0.2585,-0.398 2.6989,1.7526 c 0.7589,0.4928 1.3497,0.9365 1.7725,1.3312 0.4228,0.3943 0.756,0.801 0.9951,1.2224 0.4362,0.7683 0.635,1.5859 0.5938,2.456 -0.0391,0.8717 -0.3122,1.6957 -0.8197,2.477 -0.424,0.653 -0.9641,1.168 -1.6247,1.5474 -0.6572,0.3789 -1.362,0.5834 -2.1119,0.6102 -0.6046,0.0246 -1.2114,-0.0695 -1.819,-0.2789 -0.6085,-0.2128 -1.3417,-0.5977 -2.2017,-1.1561 z m 13.5078,4.1615 2.6467,1.2342 0.0263,-3.5446 z m -4.3282,1.7629 0.2116,-0.4539 c 0.036,-0.0772 0.0828,-0.1327 0.1389,-0.1691 0.0574,-0.0337 0.1252,-0.0504 0.1992,-0.0472 l 0.3508,0.0139 c 0.1266,0.0132 0.2854,-0.0309 0.4731,-0.1315 0.19,-0.0998 0.4077,-0.254 0.6547,-0.4647 l 4.9481,-4.2102 -0.0275,-0.8744 c -0.003,-0.0159 -0.003,-0.0327 0.001,-0.0525 0.004,-0.0198 0.0138,-0.0467 0.0305,-0.0824 0.036,-0.0773 0.1648,-0.1186 0.3863,-0.1238 0.1488,-7e-4 0.267,-0.008 0.3557,-0.0248 l 0.3594,-0.0666 c 0.0981,-0.0145 0.221,-0.0488 0.3688,-0.103 0.1478,-0.0542 0.2436,-0.0698 0.2907,-0.0478 0.0664,0.031 0.103,0.1035 0.1109,0.2207 6e-4,0.01 0.001,0.0148 0.001,0.0148 l 0.0733,9.2739 c 0.005,0.123 0.0164,0.2222 0.0376,0.2997 0.02,0.0745 0.0549,0.1392 0.0999,0.1938 l 0.1542,0.1782 c 0.004,0.002 0.0131,0.0108 0.0266,0.0268 0.1175,0.1392 0.15,0.2653 0.0972,0.3784 l -0.2328,0.4995 -3.3513,-1.5627 0.2117,-0.4539 c 0.0343,-0.0734 0.08,-0.1268 0.1339,-0.1644 0.0554,-0.0345 0.1239,-0.0532 0.2043,-0.052 l 0.3629,-0.007 c 0.0398,0.004 0.0797,-0.009 0.1228,-0.0344 0.0442,-0.0276 0.0738,-0.0573 0.0905,-0.093 0.0211,-0.0455 0.0388,-0.1001 0.0509,-0.1596 0.012,-0.0595 0.0186,-0.124 0.018,-0.1896 l -0.004,-0.9258 -3.4947,-1.6296 -0.7023,0.5895 c -0.0724,0.0604 -0.1228,0.1067 -0.1502,0.1375 -0.0283,0.0326 -0.0513,0.0654 -0.068,0.101 -0.0248,0.0535 -0.0317,0.113 -0.0239,0.1745 0.01,0.0626 0.0357,0.1133 0.0777,0.1521 l 0.1551,0.193 c 0.004,0.002 0.013,0.0109 0.0264,0.0269 0.1177,0.1392 0.1519,0.2614 0.1029,0.3664 l -0.2384,0.5114 z m 14.032,4.7964 c 0.05,0.0219 0.1096,0.0448 0.1738,0.0692 0.0641,0.0243 0.1594,0.0595 0.2867,0.1033 1.2219,0.4207 2.2455,0.4308 3.0737,0.0361 0.8266,-0.3978 1.4488,-1.2036 1.8654,-2.4133 0.4023,-1.1682 0.4127,-2.1639 0.0336,-2.9861 -0.3807,-0.8249 -1.1294,-1.4296 -2.2465,-1.8143 -0.0648,-0.0223 -0.2068,-0.0666 -0.4287,-0.1337 -0.1211,-0.0325 -0.212,-0.0591 -0.2724,-0.08 z m -3.0481,0.0492 0.1547,-0.4487 c 0.0335,-0.0973 0.0829,-0.168 0.1505,-0.2119 0.066,-0.0466 0.1479,-0.067 0.2451,-0.0659 l 0.2281,-0.002 c 0.1238,-0.003 0.2146,-0.0279 0.2747,-0.0719 0.0579,-0.0448 0.1123,-0.1372 0.1612,-0.2799 l 2.2415,-6.5093 c 0.0506,-0.1469 0.0647,-0.2531 0.0465,-0.324 -0.0209,-0.0697 -0.0775,-0.1448 -0.1734,-0.2217 l -0.183,-0.151 c -0.0771,-0.0588 -0.1269,-0.1246 -0.1503,-0.202 -0.0217,-0.0746 -0.0172,-0.1609 0.0164,-0.2581 l 0.1545,-0.4487 3.0427,1.0477 c 0.8555,0.2946 1.5362,0.5822 2.0419,0.8628 0.5056,0.2805 0.9272,0.5943 1.2612,0.9454 0.6092,0.6399 0.9997,1.3851 1.1703,2.2394 0.1729,0.8552 0.1072,1.7207 -0.196,2.6018 -0.2535,0.736 -0.653,1.3664 -1.2021,1.8943 -0.5461,0.5267 -1.1804,0.8957 -1.9017,1.103 -0.5807,0.1701 -1.1922,0.2257 -1.8325,0.1694 -0.6418,-0.0591 -1.4464,-0.2552 -2.4159,-0.589 z m 20.578,4.0693 c 0.0538,0.009 0.1172,0.017 0.1852,0.0251 0.068,0.008 0.1691,0.0191 0.3033,0.0309 1.2875,0.1126 2.283,-0.1252 2.9911,-0.7086 0.7059,-0.5859 1.1147,-1.5182 1.2263,-2.7928 0.1077,-1.2309 -0.1232,-2.1995 -0.6899,-2.9055 -0.5689,-0.7084 -1.4417,-1.114 -2.6186,-1.2169 -0.0682,-0.006 -0.217,-0.0147 -0.4483,-0.0261 -0.1255,-0.002 -0.2201,-0.006 -0.2837,-0.0117 z m -2.9455,0.7852 0.0414,-0.4728 c 0.009,-0.1025 0.0397,-0.1831 0.0946,-0.242 0.0528,-0.0612 0.1274,-0.1008 0.222,-0.1232 l 0.2207,-0.0576 c 0.1192,-0.0334 0.2015,-0.079 0.2492,-0.1363 0.0453,-0.0575 0.0756,-0.1602 0.0887,-0.3106 l 0.6,-6.8583 c 0.0136,-0.1546 0.002,-0.2611 -0.0331,-0.3256 -0.0371,-0.0625 -0.1103,-0.1217 -0.2221,-0.1732 l -0.214,-0.1021 c -0.0891,-0.0384 -0.1533,-0.0903 -0.1946,-0.1596 -0.0392,-0.0672 -0.0556,-0.152 -0.0466,-0.2543 l 0.0412,-0.4729 3.206,0.2805 c 0.9015,0.0789 1.6313,0.1933 2.1899,0.3431 0.5584,0.1498 1.0436,0.3525 1.4525,0.6123 0.7458,0.4735 1.3051,1.102 1.6774,1.8898 0.3746,0.7878 0.5203,1.6437 0.4391,2.5718 -0.0679,0.7755 -0.303,1.4838 -0.708,2.1289 -0.4026,0.6432 -0.9289,1.1547 -1.5785,1.5304 -0.5222,0.3056 -1.102,0.5073 -1.7368,0.6077 -0.6372,0.0979 -1.4654,0.1022 -2.4868,0.0128 z m 12.0812,0.9822 -0.0166,-0.4743 c -0.004,-0.1027 0.0173,-0.1866 0.0647,-0.2517 0.0448,-0.0672 0.1141,-0.1156 0.2051,-0.1493 l 0.2121,-0.0842 c 0.1143,-0.0455 0.1904,-0.1007 0.2308,-0.1634 0.038,-0.0648 0.0555,-0.1704 0.0503,-0.319 l -0.2404,-6.8825 c -0.005,-0.1552 -0.0302,-0.2594 -0.0726,-0.3192 -0.0446,-0.0575 -0.1243,-0.1051 -0.2415,-0.1448 l -0.2249,-0.0753 c -0.093,-0.0272 -0.1632,-0.0708 -0.2126,-0.1348 -0.0472,-0.0618 -0.0737,-0.144 -0.0773,-0.2466 l -0.0166,-0.4744 5.7214,-0.1999 c 0.1558,-0.005 0.3705,-0.0194 0.6439,-0.0421 0.2711,-0.0226 0.5657,-0.0503 0.8836,-0.0878 l 0.082,2.3495 -0.366,0.0129 c -0.1535,0.005 -0.2676,-0.0125 -0.3471,-0.0557 -0.0772,-0.041 -0.1561,-0.1367 -0.2344,-0.2829 -0.1627,-0.3225 -0.3572,-0.5454 -0.5836,-0.6646 -0.2264,-0.1211 -0.5474,-0.1734 -0.963,-0.1588 l -1.9221,0.067 0.1118,3.1998 0.9209,-0.0322 c 0.1605,-0.006 0.2967,-0.03 0.411,-0.0755 0.1143,-0.0434 0.1996,-0.1055 0.2584,-0.1842 l 0.185,-0.2515 c 0.0159,-0.0203 0.0339,-0.0428 0.0521,-0.0653 0.1286,-0.1752 0.2581,-0.265 0.3925,-0.2697 l 0.47,-0.0165 0.0921,2.6381 -0.4699,0.0165 c -0.1393,0.005 -0.2793,-0.0779 -0.4247,-0.2478 -0.0197,-0.0212 -0.0321,-0.0339 -0.0369,-0.0381 l -0.2075,-0.2554 c -0.0689,-0.0786 -0.1584,-0.1345 -0.2729,-0.1699 -0.1148,-0.0331 -0.2524,-0.048 -0.4129,-0.0424 l -0.921,0.0321 0.1185,3.3943 2.7177,-0.095 c 0.267,-0.009 0.5078,-0.0834 0.7206,-0.2242 0.2126,-0.1388 0.369,-0.3259 0.4721,-0.5613 0.0218,-0.0512 0.0523,-0.1223 0.0894,-0.2134 0.1331,-0.3218 0.3116,-0.4856 0.5383,-0.4936 l 0.4416,-0.0153 0.0864,2.4763 z m 25.8905,-4.2402 c -0.8331,0.4976 -1.5952,0.9047 -2.2869,1.2171 -0.6911,0.3144 -1.3237,0.5368 -1.8946,0.6686 -0.7642,0.1764 -1.4497,0.2425 -2.0586,0.1993 -0.6091,-0.0435 -1.185,-0.1956 -1.7232,-0.4575 -0.7005,-0.3456 -1.2765,-0.814 -1.7319,-1.4001 -0.456,-0.5884 -0.7756,-1.2799 -0.9592,-2.0748 -0.1403,-0.6073 -0.1606,-1.231 -0.0637,-1.8729 0.0995,-0.6402 0.3079,-1.2494 0.6306,-1.8267 0.3388,-0.6012 0.7606,-1.0846 1.2632,-1.4498 0.5025,-0.3651 1.1057,-0.63 1.8126,-0.7932 0.5847,-0.1351 1.148,-0.1528 1.6916,-0.0562 0.5442,0.0989 0.822,0.1469 0.8358,0.1438 0.0347,-0.008 0.064,-0.017 0.0843,-0.024 0.0179,-0.006 0.0358,-0.0128 0.0463,-0.0197 l 0.1784,-0.1197 c 0.0948,-0.0623 0.1699,-0.1044 0.22,-0.1294 0.0523,-0.0255 0.0944,-0.042 0.1313,-0.0505 l 0.2625,-0.0606 0.5766,2.4975 -0.3982,0.0919 c -0.2072,0.0479 -0.4092,-0.0289 -0.6079,-0.2277 -0.024,-0.0305 -0.0428,-0.0486 -0.0549,-0.0592 -0.4419,-0.4546 -0.8779,-0.7669 -1.3093,-0.9345 -0.4315,-0.1674 -0.8801,-0.1985 -1.3428,-0.0917 -0.8356,0.1929 -1.4171,0.6886 -1.7445,1.4869 -0.3268,0.8004 -0.3526,1.7916 -0.079,2.9764 0.2828,1.2253 0.788,2.1321 1.5142,2.7254 0.7263,0.5931 1.5552,0.7812 2.4899,0.5654 0.5525,-0.1276 0.9465,-0.3533 1.1826,-0.6749 0.2363,-0.3216 0.2984,-0.7243 0.1873,-1.2058 l -0.0619,-0.2685 c -0.0312,-0.1343 -0.0828,-0.2323 -0.154,-0.2989 -0.0738,-0.0682 -0.1818,-0.1151 -0.324,-0.143 l -0.2602,-0.0454 c -0.1149,-0.0251 -0.2023,-0.0676 -0.2636,-0.1231 -0.0591,-0.056 -0.1013,-0.1337 -0.1244,-0.234 l -0.1082,-0.4688 2.8477,-0.6575 c 0.0158,0.2366 0.0394,0.4646 0.0679,0.6824 0.0279,0.2158 0.0649,0.4182 0.1083,0.6058 0.0969,0.4198 0.2025,0.7096 0.3166,0.8674 0.1163,0.1571 0.2737,0.2509 0.4751,0.2831 l 0.2412,0.0363 c 0.0895,0.0197 0.1537,0.0453 0.1905,0.0794 0.0342,0.0325 0.0655,0.0949 0.0913,0.1854 z m -1.323,-8.8962 3.2991,-1.3328 0.1778,0.44 c 0.0401,0.0994 0.0523,0.1863 0.038,0.2582 -0.0165,0.0727 -0.0563,0.1384 -0.1214,0.1977 l -0.1616,0.1548 c -0.0865,0.0822 -0.1371,0.1592 -0.1492,0.2302 -0.0142,0.0717 0.008,0.1762 0.064,0.3161 l 1.5763,3.9013 c 0.2187,0.5414 0.4035,0.9292 0.5561,1.1623 0.1507,0.2339 0.324,0.4233 0.5141,0.5659 0.2935,0.2281 0.6419,0.3586 1.0473,0.3908 0.4052,0.032 0.8178,-0.038 1.2385,-0.208 0.3746,-0.1514 0.698,-0.3599 0.963,-0.625 0.2657,-0.263 0.4524,-0.5578 0.5543,-0.8796 0.0925,-0.2756 0.1123,-0.5926 0.0563,-0.9451 -0.0557,-0.3525 -0.2068,-0.8339 -0.4526,-1.4423 l -1.5164,-3.7532 c -0.0532,-0.1319 -0.1093,-0.2201 -0.1712,-0.2659 -0.0626,-0.0478 -0.1502,-0.0691 -0.2696,-0.068 l -0.1973,-0.003 c -0.0985,0.002 -0.1779,-0.0178 -0.2403,-0.0586 -0.06,-0.0418 -0.1117,-0.1129 -0.1519,-0.2122 l -0.1777,-0.4401 2.4469,-0.9886 0.1777,0.4401 c 0.0402,0.0993 0.0546,0.1855 0.0402,0.2573 -0.0142,0.0717 -0.0553,0.1404 -0.1277,0.2072 l -0.14,0.1392 c -0.0822,0.0804 -0.129,0.1536 -0.1427,0.2205 -0.0117,0.0661 0.0118,0.1745 0.0709,0.3204 l 1.5901,3.9359 c 0.2966,0.734 0.459,1.3381 0.4862,1.8154 0.0295,0.4764 -0.0556,0.9472 -0.2498,1.4124 -0.1954,0.4752 -0.497,0.9014 -0.9062,1.2766 -0.409,0.3752 -0.9031,0.6787 -1.4858,0.9141 -1.2749,0.515 -2.375,0.561 -3.2982,0.1366 -0.9232,-0.4242 -1.6582,-1.3161 -2.2062,-2.6727 l -1.5164,-3.7533 c -0.0565,-0.14 -0.1134,-0.2301 -0.1736,-0.2718 -0.0602,-0.0418 -0.1477,-0.0631 -0.267,-0.062 l -0.1975,-0.003 c -0.0985,0.002 -0.1801,-0.0169 -0.2439,-0.0618 -0.0655,-0.0419 -0.1163,-0.111 -0.1549,-0.2063 z m 15.051,0.3209 2.5786,-1.3709 -2.8151,-2.1542 z m -1.1969,4.5179 -0.235,-0.4423 c -0.0401,-0.0753 -0.0563,-0.146 -0.0516,-0.2128 0.008,-0.066 0.0351,-0.1302 0.0822,-0.1875 l 0.2222,-0.2717 c 0.0869,-0.0932 0.1472,-0.2465 0.1797,-0.457 0.0345,-0.2117 0.0427,-0.4785 0.0229,-0.8024 l -0.3845,-6.4856 -0.7149,-0.5042 c -0.0146,-0.007 -0.028,-0.0173 -0.0415,-0.0325 -0.0132,-0.0151 -0.0288,-0.0391 -0.0472,-0.0739 -0.0401,-0.0752 0.004,-0.203 0.1334,-0.383 0.0891,-0.1193 0.1543,-0.2182 0.1944,-0.299 l 0.1632,-0.3271 c 0.0472,-0.087 0.0939,-0.2059 0.1395,-0.3565 0.0456,-0.1507 0.0908,-0.2366 0.1368,-0.2611 0.0647,-0.0343 0.1446,-0.0199 0.2429,0.0442 0.008,0.006 0.0125,0.008 0.0125,0.008 l 7.4507,5.5224 c 0.1012,0.07 0.1873,0.1208 0.2618,0.1505 0.0715,0.0289 0.1443,0.0397 0.2149,0.0368 l 0.2351,-0.0159 c 0.004,-0.002 0.0166,-0.004 0.0376,-0.005 0.1817,-0.0101 0.302,0.04 0.3606,0.1501 l 0.2588,0.4865 -3.2648,1.7359 -0.2352,-0.4422 c -0.038,-0.0714 -0.053,-0.1401 -0.0507,-0.2059 0.006,-0.0649 0.0321,-0.1309 0.0814,-0.1943 l 0.2129,-0.294 c 0.0272,-0.0293 0.0411,-0.0689 0.0465,-0.1188 0.005,-0.052 -0.001,-0.0934 -0.0199,-0.1282 -0.0237,-0.0443 -0.0565,-0.0912 -0.0968,-0.1368 -0.0403,-0.0454 -0.0878,-0.0895 -0.1404,-0.1283 l -0.7416,-0.5544 -3.4048,1.8103 0.0481,0.9158 c 0.005,0.094 0.0115,0.1623 0.0195,0.2025 0.009,0.0423 0.0214,0.0804 0.0398,0.1151 0.0277,0.0521 0.0711,0.0935 0.1249,0.1242 0.0559,0.0298 0.112,0.0396 0.1682,0.0295 l 0.2474,-0.008 c 0.004,-0.002 0.0167,-0.004 0.0375,-0.005 0.1819,-0.0102 0.3003,0.0359 0.3546,0.1383 l 0.2649,0.4981 z m 12.3292,-8.311 c 0.0466,-0.0283 0.0994,-0.0641 0.1561,-0.1026 0.0567,-0.0385 0.1402,-0.0964 0.2491,-0.1756 1.0456,-0.7596 1.6409,-1.5922 1.7926,-2.4972 0.1484,-0.9051 -0.1548,-1.8771 -0.9067,-2.9122 -0.7263,-0.9996 -1.536,-1.5792 -2.4268,-1.7402 -0.8943,-0.1614 -1.8189,0.1051 -2.7749,0.7995 -0.0554,0.0402 -0.1732,0.1313 -0.3554,0.2745 -0.0961,0.0807 -0.17,0.1397 -0.2218,0.1773 z m -1.708,2.5251 -0.2791,-0.384 c -0.0604,-0.0832 -0.0899,-0.1644 -0.0871,-0.2448 -4e-4,-0.0808 0.0299,-0.1597 0.0866,-0.2386 l 0.1288,-0.1883 c 0.068,-0.1035 0.1002,-0.1917 0.0987,-0.2662 -0.004,-0.0733 -0.048,-0.1707 -0.1368,-0.2928 l -4.0466,-5.5696 c -0.0912,-0.1256 -0.1701,-0.1981 -0.2387,-0.224 -0.0691,-0.0227 -0.163,-0.0195 -0.2812,0.015 l -0.2284,0.0633 c -0.0925,0.0294 -0.175,0.0325 -0.2518,0.007 -0.0735,-0.0249 -0.1416,-0.0781 -0.202,-0.1613 l -0.2789,-0.384 2.6035,-1.8915 c 0.7319,-0.5318 1.3579,-0.9244 1.8778,-1.1778 0.5197,-0.2532 1.0187,-0.4186 1.4978,-0.4908 0.8737,-0.132 1.7081,-0.0245 2.5059,0.3257 0.7996,0.3489 1.4711,0.8992 2.0187,1.6529 0.4576,0.6299 0.7448,1.3186 0.8622,2.0712 0.1183,0.7495 0.0567,1.4809 -0.1872,2.1905 -0.1937,0.5733 -0.4989,1.106 -0.9123,1.5982 -0.4165,0.4919 -1.0387,1.0385 -1.8682,1.6412 z m 8.708,-11.1825 2.1009,-2.0286 -3.2999,-1.2948 z m 0.0948,4.6727 -0.3479,-0.3603 c -0.0592,-0.0614 -0.0943,-0.1249 -0.1081,-0.1904 -0.0109,-0.0655 -0.002,-0.1348 0.0272,-0.2029 l 0.1387,-0.3224 c 0.0578,-0.1135 0.0735,-0.2775 0.0468,-0.4889 -0.025,-0.213 -0.0909,-0.4716 -0.1991,-0.7775 l -2.1574,-6.1285 -0.8261,-0.2875 c -0.0161,-0.003 -0.0317,-0.009 -0.0487,-0.0198 -0.0171,-0.0109 -0.0387,-0.0296 -0.066,-0.058 -0.0592,-0.0614 -0.0517,-0.1964 0.0228,-0.4049 0.0527,-0.1393 0.0881,-0.2524 0.1044,-0.3411 l 0.0666,-0.3594 c 0.0215,-0.0967 0.0337,-0.2238 0.0361,-0.3812 0.002,-0.1575 0.0221,-0.2525 0.0595,-0.2886 0.0528,-0.0508 0.1334,-0.059 0.2457,-0.0245 0.009,0.003 0.0142,0.005 0.0142,0.005 l 8.6843,3.2549 c 0.1165,0.0392 0.2132,0.0644 0.2931,0.0724 0.0767,0.008 0.1496,-0.002 0.2168,-0.0239 l 0.2215,-0.0801 c 0.003,-0.003 0.015,-0.008 0.0346,-0.0151 0.1721,-0.0599 0.3015,-0.045 0.3882,0.0447 l 0.3827,0.3965 -2.6597,2.5685 -0.348,-0.3603 c -0.0562,-0.0582 -0.0896,-0.12 -0.1054,-0.1839 -0.0124,-0.0641 -0.005,-0.1348 0.0246,-0.2093 l 0.1238,-0.3413 c 0.0179,-0.0356 0.0203,-0.0775 0.0117,-0.127 -0.01,-0.0512 -0.027,-0.0894 -0.0543,-0.1177 -0.035,-0.0361 -0.0796,-0.0722 -0.1308,-0.1048 -0.0512,-0.0325 -0.1091,-0.0618 -0.1706,-0.0847 l -0.8655,-0.3285 -2.7738,2.6787 0.2986,0.8669 c 0.0305,0.0893 0.0557,0.1529 0.0746,0.1894 0.0203,0.0381 0.0425,0.0714 0.07,0.0997 0.0409,0.0425 0.094,0.0703 0.1543,0.0851 0.062,0.0131 0.1186,0.007 0.1698,-0.0181 l 0.2357,-0.0757 c 0.003,-0.003 0.015,-0.008 0.0347,-0.0151 0.172,-0.0598 0.2985,-0.0481 0.379,0.0353 l 0.3919,0.4059 z"
           style="fill:#ffffff;fill-rule:evenodd"
           id="path91" />
        <path
           d="m 565.7318,359.6059 -0.3741,-0.2922 c -0.081,-0.0633 -0.1319,-0.1332 -0.1514,-0.2112 -0.0225,-0.0776 -0.0151,-0.1618 0.0176,-0.2533 l 0.072,-0.2164 c 0.0386,-0.117 0.0451,-0.2107 0.023,-0.2819 -0.0253,-0.0708 -0.0948,-0.1521 -0.2119,-0.2436 l -5.4269,-4.2399 c -0.1206,-0.0943 -0.2183,-0.1435 -0.2912,-0.1495 -0.0726,-0.003 -0.1603,0.0275 -0.2662,0.0919 l -0.2021,0.1238 c -0.0808,0.0538 -0.1593,0.0795 -0.24,0.0763 -0.0776,-0.004 -0.1577,-0.0361 -0.2386,-0.0994 l -0.374,-0.2922 2.3491,-3.0068 0.374,0.2921 c 0.0811,0.0633 0.129,0.1368 0.1456,0.2186 0.0169,0.0851 0.002,0.1818 -0.0414,0.2945 l -0.088,0.2371 c -0.0548,0.1341 -0.0717,0.2408 -0.049,0.3184 0.0211,0.0796 0.0893,0.1629 0.2048,0.2531 l 5.7147,4.4647 1.6757,-2.1449 c 0.1643,-0.2103 0.2609,-0.4407 0.2897,-0.6941 0.0304,-0.252 -0.0124,-0.4922 -0.1265,-0.7225 -0.0253,-0.0496 -0.0599,-0.1187 -0.106,-0.2055 -0.161,-0.3088 -0.1717,-0.551 -0.032,-0.7298 l 0.272,-0.3481 1.9921,1.5565 c -0.0508,0.0652 -0.1328,0.1629 -0.2428,0.2931 -0.489,0.5833 -0.8267,0.9941 -1.0114,1.2305 z m 5.0051,-12.4582 1.5476,-2.4766 -3.515,-0.4579 z m 1.2224,4.5109 -0.4247,-0.2654 c -0.0723,-0.0452 -0.1217,-0.0983 -0.1511,-0.1585 -0.0264,-0.061 -0.0346,-0.1302 -0.0225,-0.2035 l 0.0565,-0.3463 c 0.0285,-0.1242 0.004,-0.2871 -0.0729,-0.4857 -0.0759,-0.2006 -0.2022,-0.4357 -0.3812,-0.7064 l -3.5759,-5.4243 -0.8712,-0.0792 c -0.0163,10e-4 -0.0329,-0.001 -0.0521,-0.007 -0.0192,-0.006 -0.0446,-0.0194 -0.078,-0.0403 -0.0724,-0.0452 -0.0975,-0.178 -0.0758,-0.3985 0.0174,-0.1478 0.0244,-0.2661 0.0187,-0.3561 l -0.0221,-0.3648 c -0.003,-0.0991 -0.0217,-0.2253 -0.0575,-0.3786 -0.0358,-0.1533 -0.0395,-0.2503 -0.0119,-0.2944 0.0388,-0.0621 0.1151,-0.0895 0.2325,-0.0832 0.01,6e-4 0.0147,0.001 0.0147,0.001 l 9.2138,1.0573 c 0.1226,0.01 0.2226,0.0108 0.302,-7e-4 0.0764,-0.0108 0.1449,-0.0377 0.2046,-0.0756 l 0.1955,-0.1314 c 0.002,-0.004 0.0125,-0.0117 0.03,-0.0231 0.1525,-0.0997 0.2815,-0.1165 0.3874,-0.0503 l 0.4673,0.2919 -1.9594,3.1358 -0.4247,-0.2654 c -0.0687,-0.0429 -0.1161,-0.0949 -0.1468,-0.153 -0.0276,-0.0591 -0.0377,-0.1295 -0.0267,-0.209 l 0.0373,-0.3611 c 0.009,-0.0389 0.001,-0.0801 -0.0191,-0.1261 -0.0222,-0.0473 -0.0481,-0.0801 -0.0814,-0.1011 -0.0425,-0.0265 -0.0946,-0.0507 -0.1522,-0.0699 -0.0577,-0.0194 -0.1208,-0.0337 -0.1858,-0.041 l -0.9194,-0.1093 -2.0434,3.27 0.4994,0.7691 c 0.0511,0.0791 0.091,0.1348 0.1182,0.1657 0.029,0.0321 0.0586,0.0589 0.092,0.0798 0.05,0.0313 0.1083,0.0453 0.1703,0.0452 0.0634,-0.002 0.1168,-0.0218 0.1605,-0.0587 l 0.2104,-0.1304 c 0.003,-0.004 0.0125,-0.0117 0.0299,-0.023 0.1525,-0.0998 0.278,-0.1189 0.3763,-0.0574 l 0.4785,0.2989 z m 5.7638,-11.5463 c 0.0988,-0.0636 0.1817,-0.1301 0.249,-0.1992 0.067,-0.0693 0.1239,-0.1517 0.1689,-0.2401 0.1748,-0.3431 0.1846,-0.6564 0.0336,-0.9428 -0.1509,-0.2865 -0.4646,-0.5524 -0.944,-0.7966 l -5.2008,-2.6499 c -0.1286,-0.0655 -0.2319,-0.0943 -0.3107,-0.084 -0.0759,0.009 -0.1601,0.0589 -0.2537,0.1463 l -0.1563,0.138 c -0.0772,0.0746 -0.1533,0.118 -0.2314,0.1313 -0.0787,0.0103 -0.1635,-0.006 -0.2532,-0.052 l -0.4228,-0.2155 1.6089,-3.1578 0.4229,0.2155 c 0.0935,0.0476 0.1589,0.1021 0.1974,0.1615 0.0355,0.0606 0.0504,0.1371 0.0458,0.2329 l -0.008,0.1842 c -0.009,0.1042 0.006,0.1859 0.0432,0.2475 0.0386,0.0593 0.1274,0.1258 0.2638,0.1953 l 4.1602,2.1198 c 0.6548,0.3336 1.1178,0.6147 1.3873,0.8421 0.2715,0.2284 0.4877,0.4924 0.6534,0.7889 0.2354,0.4196 0.3504,0.8733 0.3459,1.3589 -0.006,0.4878 -0.1341,0.9765 -0.383,1.4648 -0.3347,0.6569 -0.7492,1.1138 -1.2434,1.3659 -0.4933,0.2552 -0.9712,0.2635 -1.4311,0.0293 -0.2709,-0.1382 -0.4471,-0.3366 -0.5287,-0.5955 -0.0816,-0.2591 -0.0538,-0.5207 0.0792,-0.7818 0.1385,-0.2716 0.328,-0.4507 0.5666,-0.5387 0.2386,-0.0878 0.4822,-0.0698 0.7297,0.0563 0.1092,0.0556 0.1987,0.1304 0.2657,0.2256 0.0679,0.0929 0.1161,0.2102 0.1455,0.3498 z m 1.4578,-9.0506 0.9023,-2.7774 -3.5214,0.406 z m 2.2771,4.0812 -0.4762,-0.1547 c -0.0811,-0.0264 -0.1419,-0.066 -0.1849,-0.1173 -0.0403,-0.0528 -0.0653,-0.118 -0.0711,-0.192 l -0.029,-0.3497 c -0.002,-0.1274 -0.0654,-0.2796 -0.1882,-0.4537 -0.1221,-0.1764 -0.3017,-0.3738 -0.5408,-0.5931 l -4.7819,-4.3982 -0.8645,0.1339 c -0.0154,0.005 -0.0322,0.007 -0.0523,0.005 -0.0201,-0.002 -0.0479,-0.008 -0.0855,-0.0203 -0.081,-0.0263 -0.1378,-0.1491 -0.1699,-0.3683 -0.0188,-0.1476 -0.0408,-0.264 -0.068,-0.3499 l -0.1099,-0.3488 c -0.0263,-0.0954 -0.0754,-0.2133 -0.1472,-0.3534 -0.0718,-0.1401 -0.099,-0.2332 -0.0828,-0.2828 0.0225,-0.0696 0.09,-0.1148 0.2053,-0.137 0.01,-0.002 0.0148,-0.003 0.0148,-0.003 l 9.1956,-1.2031 c 0.1216,-0.0201 0.2188,-0.0433 0.293,-0.0737 0.0715,-0.0289 0.1314,-0.0716 0.1803,-0.1228 l 0.158,-0.1748 c 0.001,-0.004 0.009,-0.0144 0.0235,-0.0297 0.1237,-0.1336 0.2449,-0.1812 0.3636,-0.1426 l 0.5241,0.1703 -1.1427,3.5166 -0.4762,-0.1548 c -0.0769,-0.025 -0.1355,-0.0639 -0.1795,-0.1129 -0.0411,-0.0507 -0.068,-0.1165 -0.0766,-0.1964 l -0.051,-0.3593 c -7e-4,-0.04 -0.0184,-0.0781 -0.0491,-0.1178 -0.0328,-0.0404 -0.0658,-0.0661 -0.1033,-0.0783 -0.0478,-0.0155 -0.1041,-0.0264 -0.1646,-0.0311 -0.0606,-0.005 -0.1253,-0.003 -0.1902,0.005 l -0.9186,0.1163 -1.1916,3.6673 0.6706,0.6253 c 0.0688,0.0645 0.121,0.1089 0.1549,0.1322 0.0358,0.0242 0.0711,0.043 0.1085,0.0552 0.0562,0.0182 0.1161,0.0179 0.1761,0.003 0.0609,-0.0175 0.1082,-0.0494 0.1415,-0.0958 l 0.1727,-0.1774 c 0.002,-0.004 0.009,-0.0144 0.0234,-0.0295 0.1239,-0.1337 0.241,-0.1826 0.3512,-0.1468 l 0.5366,0.1744 z m -0.8421,-15.3982 0.1326,-0.624 c 0.1724,-0.8111 0.1707,-1.4348 -0.003,-1.8678 -0.174,-0.4331 -0.5315,-0.7072 -1.0749,-0.8227 -0.5777,-0.1227 -1.0399,-0.0302 -1.3892,0.2771 -0.3493,0.3075 -0.6065,0.8543 -0.7736,1.6401 l -0.1497,0.7048 z m 4.6529,3.9335 -0.4643,-0.0987 c -0.1005,-0.0214 -0.1769,-0.0618 -0.2286,-0.1234 -0.0543,-0.0599 -0.0845,-0.1388 -0.0953,-0.2354 l -0.0302,-0.2261 c -0.0187,-0.1223 -0.0539,-0.2096 -0.105,-0.2638 -0.0515,-0.0521 -0.1518,-0.0951 -0.2973,-0.1261 l -6.734,-1.4313 c -0.153,-0.0277 -0.2617,-0.0315 -0.3258,-0.0139 -0.0647,0.0202 -0.1289,0.0694 -0.1908,0.1504 l -0.1097,0.1482 c -0.061,0.0765 -0.1234,0.1284 -0.1933,0.1521 -0.0683,0.0266 -0.1514,0.0282 -0.2454,0.008 l -0.4642,-0.0987 0.8262,-3.8872 c 0.277,-1.3034 0.7051,-2.2341 1.2818,-2.7904 0.5764,-0.5562 1.3024,-0.7425 2.1795,-0.5561 0.7038,0.1496 1.2124,0.4922 1.5316,1.031 0.3176,0.5361 0.4123,1.2157 0.287,2.0368 0.2284,-0.3596 0.6534,-0.6654 1.2733,-0.9104 0.0535,-0.0202 0.0906,-0.0364 0.1149,-0.0457 l 1.9602,-0.7864 c 0.2683,-0.1047 0.4589,-0.1922 0.577,-0.2638 0.118,-0.0714 0.211,-0.1508 0.276,-0.2359 l 0.2045,-0.2463 c 0.0712,-0.0937 0.1404,-0.1563 0.2102,-0.1898 0.0671,-0.0316 0.1382,-0.0406 0.2089,-0.0256 l 0.4514,0.096 -0.5167,2.4311 -2.6127,1.0366 c -0.9905,0.3885 -1.6242,0.6886 -1.9008,0.8955 -0.2786,0.2065 -0.4455,0.4439 -0.5019,0.7096 -0.007,0.0325 -0.0122,0.0579 -0.0146,0.0791 -0.002,0.0213 -0.002,0.0407 -0.002,0.0601 l 2.8621,0.6084 c 0.1434,0.0304 0.2485,0.031 0.3167,0.004 0.0688,-0.0288 0.1393,-0.0984 0.2124,-0.2108 l 0.1152,-0.1736 c 0.0554,-0.0921 0.1181,-0.1561 0.1899,-0.1892 0.0745,-0.0348 0.1585,-0.0411 0.2549,-0.0206 l 0.4641,0.0987 z m -1.1183,-13.4561 0.2039,-2.9132 -3.3187,1.2459 z m 3.1971,3.4091 -0.4996,-0.0349 c -0.0851,-0.006 -0.1536,-0.0297 -0.2078,-0.0691 -0.0519,-0.0414 -0.0917,-0.0987 -0.1154,-0.1691 l -0.1127,-0.3324 c -0.0331,-0.123 -0.1311,-0.2554 -0.2924,-0.3946 -0.1611,-0.1416 -0.3831,-0.2897 -0.6682,-0.4446 l -5.704,-3.1107 -0.8063,0.3391 c -0.0138,0.009 -0.0295,0.0145 -0.0494,0.0178 -0.0201,0.003 -0.0487,0.004 -0.0879,10e-4 -0.0852,-0.006 -0.1699,-0.1114 -0.254,-0.3162 -0.0541,-0.1388 -0.1034,-0.2464 -0.1507,-0.3234 l -0.1909,-0.3116 c -0.0487,-0.0863 -0.1248,-0.1888 -0.2284,-0.3074 -0.1035,-0.1185 -0.1525,-0.2023 -0.1487,-0.2543 0.005,-0.073 0.0595,-0.1331 0.1662,-0.1826 0.009,-0.004 0.0135,-0.006 0.0135,-0.006 l 8.6316,-3.392 c 0.113,-0.0489 0.2017,-0.0949 0.2663,-0.1424 0.0624,-0.0453 0.1103,-0.1013 0.1452,-0.1628 l 0.111,-0.2078 c 3e-4,-0.005 0.005,-0.0162 0.0155,-0.0344 0.0878,-0.1596 0.194,-0.2351 0.3184,-0.2264 l 0.5497,0.0384 -0.2578,3.6886 -0.4997,-0.0349 c -0.0806,-0.006 -0.1468,-0.0293 -0.2014,-0.0662 -0.0521,-0.0392 -0.0941,-0.0966 -0.1217,-0.172 l -0.1365,-0.3364 c -0.0103,-0.0385 -0.0366,-0.0713 -0.0761,-0.1024 -0.0417,-0.0312 -0.08,-0.0482 -0.1193,-0.0509 -0.0501,-0.004 -0.1073,-5e-4 -0.1672,0.01 -0.0598,0.0101 -0.1224,0.027 -0.1833,0.0512 l -0.8632,0.3351 -0.269,3.8465 0.8021,0.4446 c 0.0823,0.0459 0.1436,0.0763 0.1821,0.0908 0.0406,0.0147 0.0794,0.0245 0.1188,0.0273 0.0588,0.004 0.1169,-0.0108 0.1714,-0.0401 0.055,-0.0318 0.093,-0.074 0.1141,-0.1271 l 0.1247,-0.2139 c 3e-4,-0.005 0.006,-0.0163 0.0155,-0.0344 0.0878,-0.1596 0.1898,-0.2355 0.3054,-0.2274 l 0.5627,0.0394 z"
           style="fill:#ffffff;fill-rule:evenodd"
           id="path93" />
      </g>
    </g>
  </g>
</svg>
