<?xml version="1.0" encoding="UTF-8" standalone="no"?>
<svg
   xmlns:dc="http://purl.org/dc/elements/1.1/"
   xmlns:cc="http://creativecommons.org/ns#"
   xmlns:rdf="http://www.w3.org/1999/02/22-rdf-syntax-ns#"
   xmlns:svg="http://www.w3.org/2000/svg"
   xmlns="http://www.w3.org/2000/svg"
   viewBox="0 0 664 768"
   height="768"
   width="664"
   xml:space="preserve"
   id="svg2"
   version="1.1"><metadata
     id="metadata8"><rdf:RDF><cc:Work
         rdf:about=""><dc:format>image/svg+xml</dc:format><dc:type
           rdf:resource="http://purl.org/dc/dcmitype/StillImage" /></cc:Work></rdf:RDF></metadata><defs
     id="defs6" /><g
     transform="matrix(1.3333333,0,0,-1.3333333,0,768)"
     id="g10"><g
       transform="scale(0.1)"
       id="g12"><path
         id="path14"
         style="fill:#2862a8;fill-opacity:1;fill-rule:evenodd;stroke:none"
         d="m 537.676,2598.7 c 0,1076.53 871.604,1949.19 1946.794,1949.19 1075.18,0.01 1946.78,-872.67 1946.78,-1949.19 0,-1076.54 -871.61,-1949.196 -1946.78,-1949.196 -1075.19,0 -1946.794,872.656 -1946.794,1949.196" /><path
         id="path16"
         style="fill:#ffffff;fill-opacity:1;fill-rule:evenodd;stroke:none"
         d="m 1315.04,2598.7 c 0,646.66 523.57,1170.87 1169.43,1170.87 645.85,0.01 1169.42,-524.21 1169.42,-1170.87 0,-646.67 -523.57,-1170.89 -1169.42,-1170.89 -645.86,0.01 -1169.43,524.21 -1169.43,1170.89" /><path
         id="path18"
         style="fill:#ed1c24;fill-opacity:1;fill-rule:evenodd;stroke:none"
         d="M 1907.91,3617.54 V 1579.81 c -86.72,49.31 -166.5,109.39 -237.57,178.42 v 1680.91 c 71.07,69.02 150.85,129.09 237.57,178.4" /><path
         id="path20"
         style="fill:#ed1c24;fill-opacity:1;fill-rule:evenodd;stroke:none"
         d="m 2167.1,3665.66 h 237.58 v -2235.1 c -81.79,5.53 -161.27,19.4 -237.58,40.89 v 2194.21" /><path
         id="path22"
         style="fill:#ed1c24;fill-opacity:1;fill-rule:evenodd;stroke:none"
         d="m 2620.68,3665.66 h 237.54 V 1488.9 c -75.99,-25.65 -155.48,-43.62 -237.54,-53.15 v 2229.91" /><path
         id="path24"
         style="fill:#ed1c24;fill-opacity:1;fill-rule:evenodd;stroke:none"
         d="M 3333.37,3403.92 V 1793.45 c -70.23,-74.22 -150.1,-139.23 -237.55,-193.03 v 1996.5 c 87.45,-53.81 167.31,-118.8 237.55,-193" /><path
         id="path26"
         style="fill:#ed1c24;fill-opacity:1;fill-rule:evenodd;stroke:none"
         d="m 3581.76,2193.05 v 811.27 c 46.63,-126.39 72.13,-263.02 72.13,-405.62 0,-142.62 -25.51,-279.27 -72.13,-405.65" /><path
         id="path28"
         style="fill:#ed1c24;fill-opacity:1;fill-rule:evenodd;stroke:none"
         d="M 1432.76,3111.2 V 2086.16 c -75.4,154.81 -117.72,328.72 -117.72,512.54 0,183.82 42.32,357.69 117.72,512.5" /><g
         id="g30"><path
           id="path32"
           style="fill:none;stroke:#ffffff;stroke-width:47.69419861;stroke-linecap:butt;stroke-linejoin:miter;stroke-miterlimit:2.61310005;stroke-dasharray:none;stroke-opacity:1"
           d="m 691.309,2598.7 c 0,991.58 802.811,1795.37 1793.161,1795.37 990.33,0 1793.14,-803.79 1793.14,-1795.37 0,-991.6 -802.81,-1795.403 -1793.14,-1795.403 -990.35,0 -1793.161,803.803 -1793.161,1795.403 z" /></g><g
         id="g34"><path
           id="path36"
           style="fill:none;stroke:#ffffff;stroke-width:56.69649887;stroke-linecap:butt;stroke-linejoin:miter;stroke-miterlimit:2.61310005;stroke-dasharray:none;stroke-opacity:1"
           d="m 1209.69,2598.7 c 0,704.93 570.73,1276.38 1274.78,1276.38 704.03,0.01 1274.76,-571.45 1274.76,-1276.38 0,-704.93 -570.73,-1276.39 -1274.76,-1276.39 -704.05,0.01 -1274.78,571.46 -1274.78,1276.39 z" /></g><path
         id="path38"
         style="fill:#f6be12;fill-opacity:1;fill-rule:evenodd;stroke:none"
         d="m 3357.79,4603.84 c 0,0 255.06,-13.83 186.09,-263.41 -34.57,-125.23 -143.51,-165 -143.51,-165 0.01,0 18.63,-199.66 -159.48,-204.98 -2.66,-0.09 76.82,91.02 50.37,193.21 0.01,0 -116.71,-4.41 -191.22,80.86 -74.5,85.26 -87.81,114.39 -87.81,114.39 0.01,0 -47.9,-23.81 -92.96,-82.43 -1.61,-2.1 -5.31,173.01 -5.31,173.01 0,0 -58.57,-8.01 -87.82,-69.28 0,0.01 -74.35,152.05 50.55,234.45 0,0 -69.18,0 -95.81,140.87 -0.47,2.63 61.03,-37.32 172.81,-5.33 111.75,31.97 273.82,132.85 462.65,127.7 188.76,-5.15 393.29,-156.84 398.62,-380.45 5.31,-223.63 -71.85,-340.86 -180.78,-540.32 -108.94,-199.47 -193.88,-343.52 -204.54,-415.27 -10.64,-71.77 15.97,-162.35 -21.28,-282.07 0,0 -47.9,39.98 -39.9,138.36 0,0 -22.87,-53.41 -15.97,-122.36 10.65,-106.56 -21.3,-130.38 -21.3,-130.38 0,0 -29.27,-15.98 -45.24,87.73 -0.82,5.27 -13.3,-53.1 2.66,-135.69 15.98,-82.58 -55.72,-173 -55.72,-173 0.01,0.01 -71.82,109.14 -77.14,252.75 -6.36,171.5 57.89,307.09 219.21,597.93 161.31,290.86 265.24,456.3 285.9,581.05 20.66,124.74 -14.43,353.99 -246.88,376.75 -232.46,22.76 -269.18,-136.47 -273.77,-180.11 -4.59,-43.67 -7.53,-140.84 100.98,-143.13 108.54,-2.29 129.16,75.78 122.29,127.85 -6.89,52.05 -5.69,66.29 -5.69,66.3" /><g
         id="g40"><path
           id="path42"
           style="fill:none;stroke:#2862a8;stroke-width:19.84609985;stroke-linecap:butt;stroke-linejoin:miter;stroke-miterlimit:2.61310005;stroke-dasharray:none;stroke-opacity:1"
           d="m 3357.79,4603.84 c 0,0 255.06,-13.83 186.09,-263.41 -34.57,-125.23 -143.51,-165 -143.51,-165 0,0 18.63,-199.66 -159.48,-204.98 -2.66,-0.09 76.82,91.02 50.37,193.21 0,0 -116.71,-4.41 -191.22,80.86 -74.51,85.26 -87.81,114.39 -87.81,114.39 0,0 -47.9,-23.81 -92.96,-82.43 l -5.31,173.01 c 0,0 -58.57,-8.01 -87.82,-69.27 0,0 -74.35,152.04 50.55,234.44 0,0 -69.18,0 -95.81,140.87 0,2.63 61.03,-37.31 172.81,-5.33 111.75,31.97 273.82,132.86 462.65,127.7 188.76,-5.15 393.29,-156.84 398.62,-380.45 5.31,-223.63 -71.85,-340.86 -180.78,-540.32 -108.94,-199.47 -193.88,-343.52 -204.54,-415.27 -10.64,-71.77 15.97,-162.35 -21.28,-282.07 0,0 -47.9,39.98 -39.9,138.36 0,0 -22.87,-53.41 -15.97,-122.36 10.65,-106.56 -21.3,-130.38 -21.3,-130.38 0,0 -29.27,-15.98 -45.24,87.73 -0.83,5.27 -13.3,-53.1 2.66,-135.69 15.98,-82.58 -55.72,-173 -55.72,-173 0,0 -71.82,109.14 -77.14,252.75 -6.36,171.5 57.89,307.09 219.21,597.93 161.31,290.86 265.24,456.3 285.9,581.05 20.66,124.74 -14.43,353.99 -246.88,376.75 -232.46,22.76 -269.18,-136.46 -273.77,-180.11 -4.59,-43.67 -7.53,-140.84 100.98,-143.13 108.54,-2.29 129.16,75.78 122.29,127.85 -6.89,52.05 -5.69,66.3 -5.69,66.3 z" /></g><path
         id="path44"
         style="fill:#f6be12;fill-opacity:1;fill-rule:evenodd;stroke:none"
         d="m 1611.13,4603.84 c 0,0 -255.06,-13.83 -186.09,-263.41 34.58,-125.23 143.51,-165 143.51,-165 0,0 -18.63,-199.66 159.48,-204.98 2.67,-0.09 -76.82,91.02 -50.39,193.21 0,0 116.73,-4.41 191.26,80.86 74.49,85.26 87.78,114.39 87.78,114.39 0,0 47.91,-23.81 92.98,-82.43 1.63,-2.1 5.31,173.01 5.31,173.01 0,0 58.56,-8.01 87.81,-69.28 0,0.01 74.35,152.05 -50.55,234.45 0,0 69.18,0 95.82,140.87 0.46,2.63 -61.04,-37.32 -172.82,-5.33 -111.75,31.97 -273.8,132.85 -462.64,127.7 -188.76,-5.15 -393.3,-156.84 -398.63,-380.45 -5.31,-223.63 71.85,-340.86 180.78,-540.32 108.94,-199.47 193.88,-343.52 204.54,-415.27 10.64,-71.77 -15.97,-162.35 21.27,-282.07 0,0 47.91,39.98 39.91,138.36 0,0 22.86,-53.41 15.97,-122.36 -10.64,-106.56 21.3,-130.38 21.3,-130.38 0,0 29.27,-15.98 45.24,87.73 0.82,5.27 13.3,-53.1 -2.66,-135.69 -15.97,-82.58 55.72,-173 55.72,-173 0,0.01 71.82,109.14 77.15,252.75 6.36,171.5 -57.93,307.09 -219.2,597.93 -161.32,290.86 -265.26,456.3 -285.92,581.05 -20.66,124.74 14.43,353.99 246.88,376.75 232.46,22.76 269.18,-136.47 273.77,-180.11 4.61,-43.67 7.53,-140.84 -100.96,-143.13 -108.54,-2.29 -129.18,75.78 -122.31,127.85 6.9,52.05 5.69,66.29 5.69,66.3" /><g
         id="g46"><path
           id="path48"
           style="fill:none;stroke:#2862a8;stroke-width:19.84609985;stroke-linecap:butt;stroke-linejoin:miter;stroke-miterlimit:2.61310005;stroke-dasharray:none;stroke-opacity:1"
           d="m 1611.13,4603.84 c 0,0 -255.06,-13.83 -186.09,-263.41 34.58,-125.23 143.51,-165 143.51,-165 0,0 -18.63,-199.66 159.48,-204.98 2.67,-0.09 -76.82,91.02 -50.39,193.21 0,0 116.73,-4.41 191.26,80.86 74.49,85.26 87.78,114.39 87.78,114.39 0,0 47.91,-23.81 92.98,-82.43 l 5.31,173.01 c 0,0 58.56,-8.01 87.81,-69.27 0,0 74.35,152.04 -50.55,234.44 0,0 69.18,0 95.82,140.87 0,2.63 -61.04,-37.31 -172.82,-5.33 -111.75,31.97 -273.8,132.86 -462.64,127.7 -188.76,-5.15 -393.3,-156.84 -398.63,-380.45 -5.31,-223.63 71.85,-340.86 180.78,-540.32 108.94,-199.47 193.88,-343.52 204.54,-415.27 10.64,-71.77 -15.97,-162.35 21.27,-282.07 0,0 47.91,39.98 39.91,138.36 0,0 22.86,-53.41 15.97,-122.36 -10.64,-106.56 21.3,-130.38 21.3,-130.38 0,0 29.27,-15.98 45.24,87.73 0.82,5.27 13.3,-53.1 -2.66,-135.69 -15.97,-82.58 55.72,-173 55.72,-173 0,0 71.82,109.14 77.15,252.75 6.36,171.5 -57.93,307.09 -219.2,597.93 -161.32,290.86 -265.26,456.3 -285.92,581.05 -20.66,124.74 14.43,353.99 246.88,376.75 232.46,22.76 269.18,-136.46 273.77,-180.11 4.61,-43.67 7.53,-140.84 -100.96,-143.13 -108.54,-2.29 -129.18,75.78 -122.31,127.85 6.9,52.05 5.69,66.3 5.69,66.3 z" /></g><path
         id="path50"
         style="fill:#f4bf13;fill-opacity:1;fill-rule:evenodd;stroke:none"
         d="m 2484.47,4125.71 h 695.03 c 0,0 -43.21,-78.91 -43.21,-187.04 0,-108.12 0,-700.12 0,-700.12 v -508.17 c 0,0 7.51,-105.99 -50.93,-155.49 -58.41,-49.48 -291.64,-157.48 -392.73,-235.99 -101.12,-78.52 -195.24,-107.76 -208.16,-182 -12.92,74.24 -107.04,103.48 -208.15,182 -101.12,78.52 -334.34,186.5 -392.75,235.99 -58.44,49.51 -50.94,155.49 -50.94,155.49 v 508.17 c 0,0 0,592 0,700.12 0,108.13 -43.21,187.04 -43.21,187.04 h 695.05" /><g
         id="g52"><path
           id="path54"
           style="fill:none;stroke:#2e3192;stroke-width:14.17199993;stroke-linecap:butt;stroke-linejoin:miter;stroke-miterlimit:2.61310005;stroke-dasharray:none;stroke-opacity:1"
           d="m 2484.47,4125.71 h 695.03 c 0,0 -43.21,-78.91 -43.21,-187.04 0,-108.12 0,-700.12 0,-700.12 v -508.17 c 0,0 7.51,-105.99 -50.93,-155.49 -58.41,-49.48 -291.64,-157.48 -392.74,-235.99 -101.11,-78.52 -195.23,-107.76 -208.15,-182 -12.92,74.24 -107.04,103.48 -208.15,182 -101.12,78.52 -334.34,186.5 -392.75,235.99 -58.45,49.51 -50.94,155.49 -50.94,155.49 v 508.17 c 0,0 0,592 0,700.12 0,108.13 -43.21,187.04 -43.21,187.04 z" /></g><path
         id="path56"
         style="fill:#2862a8;fill-opacity:1;fill-rule:evenodd;stroke:none"
         d="m 2484.47,3921.84 h 442.79 V 2784.08 c 0,0 13.29,-100.08 -43.26,-133.21 -56.54,-33.12 -399.53,-200.9 -399.53,-200.9 0,0.01 -343.01,167.78 -399.55,200.9 -56.54,33.14 -43.26,133.21 -43.26,133.21 v 1137.76 h 442.81" /><path
         id="path58"
         style="fill:#ed1c24;fill-opacity:1;fill-rule:evenodd;stroke:none"
         d="m 2974.95,3915.07 48.65,72.3 -46.56,70.21 h 45.64 l 23.8,-41.4 23.31,41.4 h 44.33 l -46.82,-69.56 48.64,-72.95 h -46.44 l -24.58,42.82 -24.74,-42.82 h -45.23" /><path
         id="path60"
         style="fill:#ed1c24;fill-opacity:1;fill-rule:evenodd;stroke:none"
         d="m 2974.95,3228.63 48.65,72.3 -46.56,70.19 h 45.64 l 23.8,-41.38 23.31,41.38 h 44.33 l -46.82,-69.55 48.64,-72.94 h -46.44 l -24.58,42.83 -24.74,-42.83 h -45.23" /><path
         id="path62"
         style="fill:#ed1c24;fill-opacity:1;fill-rule:evenodd;stroke:none"
         d="m 2953.33,2642.89 48.69,72.31 -46.59,70.19 h 45.66 l 23.79,-41.38 23.29,41.38 h 44.34 l -46.83,-69.54 48.66,-72.96 h -46.43 l -24.58,42.82 -24.72,-42.82 h -45.28" /><path
         id="path64"
         style="fill:#ed1c24;fill-opacity:1;fill-rule:evenodd;stroke:none"
         d="m 1993.98,3915.07 -48.64,72.3 46.55,70.21 h -45.64 l -23.83,-41.4 -23.27,41.4 h -44.34 l 46.82,-69.56 -48.64,-72.95 h 46.44 l 24.58,42.82 24.74,-42.82 h 45.23" /><path
         id="path66"
         style="fill:#ed1c24;fill-opacity:1;fill-rule:evenodd;stroke:none"
         d="m 1993.98,3228.63 -48.64,72.3 46.55,70.19 h -45.64 l -23.83,-41.38 -23.27,41.38 h -44.34 l 46.82,-69.55 -48.64,-72.94 h 46.44 l 24.58,42.83 24.74,-42.83 h 45.23" /><path
         id="path68"
         style="fill:#ed1c24;fill-opacity:1;fill-rule:evenodd;stroke:none"
         d="m 2555.42,2290.72 -48.65,72.29 46.55,70.22 h -45.61 l -23.82,-41.39 -23.3,41.39 h -44.32 l 46.82,-69.56 -48.66,-72.95 h 46.41 l 24.61,42.83 24.7,-42.83 h 45.27" /><path
         id="path70"
         style="fill:#ed1c24;fill-opacity:1;fill-rule:evenodd;stroke:none"
         d="m 2015.59,2648.45 -48.67,72.32 46.59,70.18 h -45.67 l -23.79,-41.38 -23.28,41.38 h -44.37 l 46.84,-69.53 -48.65,-72.97 h 46.42 l 24.58,42.84 24.73,-42.84 h 45.27" /><path
         id="path72"
         style="fill:#ed1c24;fill-opacity:1;fill-rule:evenodd;stroke:none"
         d="m 2484.47,3332.38 h 35.78 c 0,0 -3.92,-344.22 -3.92,-398.82 0.01,-54.6 25.17,-200.7 43.32,-226.69 h -75.18 -75.18 c 18.15,26 43.32,172.09 43.32,226.69 0.01,54.6 -3.92,398.82 -3.92,398.82 h 35.78" /><path
         id="path74"
         style="fill:#f4bf13;fill-opacity:1;fill-rule:evenodd;stroke:none"
         d="m 2543.38,3157.84 c 0,0 53.87,-61.24 65.99,-66.1 12.13,-4.87 41.27,7.29 46.11,16.99 4.88,9.72 0,21.37 -7.28,36.45 -7.28,15.09 4.85,18.02 21.84,7.8 16.97,-10.23 16.97,4.86 16.97,17 0,12.16 4.87,38.87 -46.09,17 -2.22,-0.93 -24.26,19.44 -9.71,31.6 14.57,12.13 50.99,19.42 101.91,36.44 19.02,6.37 58.72,-38.88 58.72,-38.88 0.01,0 2.45,-35.94 9.7,-53.44 7.32,-17.52 7.31,-29.66 2.43,-44.25 -4.84,-14.55 -12.13,-29.14 -14.55,-43.73 -2.42,-14.57 -16.97,-36.44 -16.97,-36.44 0,0 -4.87,-21.87 -4.87,-36.44 0,-14.57 33.96,-34.52 43.7,-39.39 9.69,-4.84 33.97,4.87 33.97,46.67 0,24.32 0,79.68 -2.45,126.34 -2.42,46.68 -2.43,75.82 17,97.68 19.4,21.89 36.39,7.3 19.4,-31.58 -16.97,-38.86 -26.68,-27.22 -26.68,-58.81 0.01,-31.56 7.28,-85.03 12.13,-123.9 4.85,-38.88 -4.85,-75.81 -16.98,-83.11 -12.14,-7.28 -12.14,-70.45 -12.14,-85.03 0,-14.58 4.84,-28.66 0,-48.6 -4.85,-19.93 -19.4,-51.52 -31.56,-61.25 -12.12,-9.7 -65.98,-17 -65.98,-17 0.01,0 -9.2,24.29 7.75,26.73 17.01,2.43 26.71,9.72 38.83,21.87 12.16,12.15 24.28,22.36 12.15,36.94 -12.15,14.58 -44.18,31.59 -58.73,38.87 -14.55,7.31 -48.52,12.15 -70.38,-9.72 -21.83,-21.86 -26.69,-34 -46.11,-21.86 -19.4,12.16 -73.29,48.6 -73.29,48.6 0.01,0 -2.43,46.16 -2.43,58.3 0.01,12.16 16.99,17.01 14.56,4.87 -2.44,-12.15 -4.36,-26.74 7.79,-36.45 12.12,-9.73 67.94,-38.88 67.94,-38.88 0,0 24.29,7.29 41.25,21.87 16.98,14.6 43.68,31.59 43.68,41.3 0.01,9.73 -4.85,14.57 -19.4,29.15 -14.59,14.59 -46.12,66.12 -46.12,66.12 0,0 -14.56,-19.44 -24.27,-17.02 -9.71,2.44 -83,53.46 -83,53.46 l -4.83,19.44 49,-26.72 c 0,0 16.99,-9.73 19.43,9.7 2.42,19.45 -26.68,38.88 -26.68,38.88 l -44.19,36.46 2.44,32.07" /><path
         id="path76"
         style="fill:#f4bf13;fill-opacity:1;fill-rule:evenodd;stroke:none"
         d="m 2425.58,3157.84 c 0,0 -53.89,-61.24 -66.02,-66.1 -12.12,-4.87 -41.26,7.29 -46.1,16.99 -4.84,9.72 0,21.37 7.27,36.45 7.29,15.09 -4.84,18.02 -21.83,7.8 -16.97,-10.23 -16.97,4.86 -16.97,17 0,12.16 -4.87,38.87 46.09,17 2.22,-0.93 24.27,19.44 9.7,31.6 -14.55,12.13 -50.97,19.42 -101.9,36.44 -19.04,6.37 -58.75,-38.88 -58.75,-38.88 0,0 -2.44,-35.94 -9.71,-53.44 -7.29,-17.52 -7.29,-29.66 -2.41,-44.25 4.84,-14.55 12.12,-29.14 14.55,-43.73 2.42,-14.57 16.97,-36.44 16.97,-36.44 0,0 4.87,-21.87 4.87,-36.44 0,-14.57 -33.98,-34.52 -43.7,-39.39 -9.69,-4.84 -33.96,4.87 -33.96,46.67 0,24.32 0,79.68 2.44,126.34 2.43,46.68 2.43,75.82 -16.99,97.68 -19.41,21.89 -36.41,7.3 -19.41,-31.58 16.97,-38.86 26.68,-27.22 26.68,-58.81 0,-31.56 -7.27,-85.03 -12.13,-123.9 -4.84,-38.88 4.86,-75.81 16.98,-83.11 12.14,-7.28 12.14,-70.45 12.14,-85.03 0,-14.58 -4.84,-28.66 0,-48.6 4.88,-19.93 19.43,-51.52 31.56,-61.25 12.12,-9.7 66.02,-17 66.02,-17 0,0 9.18,24.29 -7.79,26.73 -17,2.43 -26.71,9.72 -38.82,21.87 -12.16,12.15 -24.29,22.36 -12.16,36.94 12.16,14.58 44.19,31.59 58.77,38.87 14.56,7.31 48.5,12.15 70.36,-9.72 21.84,-21.86 26.69,-34 46.11,-21.86 19.41,12.16 73.29,48.6 73.29,48.6 0,0 2.43,46.16 2.43,58.3 0.01,12.16 -17,17.01 -14.56,4.87 2.44,-12.15 4.36,-26.74 -7.79,-36.45 -12.13,-9.73 -67.95,-38.88 -67.95,-38.88 0,0 -24.24,7.29 -41.25,21.87 -16.96,14.6 -43.67,31.59 -43.67,41.3 0,9.73 4.85,14.57 19.4,29.15 14.59,14.59 46.12,66.12 46.12,66.12 0,0 14.56,-19.44 24.26,-17.02 9.72,2.44 83.01,53.46 83.01,53.46 l 4.85,19.44 -49.01,-26.72 c 0,0 -17.01,-9.73 -19.44,9.7 -2.41,19.45 26.67,38.88 26.67,38.88 l 44.21,36.46 -2.43,32.07" /><path
         id="path78"
         style="fill:#67bd34;fill-opacity:1;fill-rule:evenodd;stroke:none"
         d="m 2707.44,3451.09 c 16.38,5.46 30.91,11.54 36.98,27.34 -16.99,1.83 -52.15,-21.26 -36.99,-27.34 z m 25.45,106.2 v -13.96 h 23.65 c 2.42,5.46 4.24,9.71 5.45,15.77 -8.48,1.23 -20.6,-1.81 -29.1,-1.81 z m -12.14,-43.73 c -6.68,-3.05 -16.39,-4.87 -16.39,-12.77 0.01,-7.28 4.88,-13.97 12.16,-13.97 14.55,0 24.87,10.33 27.9,24.91 -6.07,1.22 -16.99,1.22 -23.67,1.82 z m 23.99,90.85 c -9.1,-4.26 -25.79,-9.47 -25.79,-19.8 0.01,-5.47 5.43,-9.71 10.89,-9.71 15.18,0 23.67,7.89 37.02,14.58 v 14.58 c -8.5,0.61 -13.64,0.94 -22.13,0.34 z m -442.36,-122.94 -6.66,-9.12 c 6.07,-6.67 10.92,-14.58 20.61,-14.58 8.51,0 12.76,5.46 19.43,9.72 -8.48,5.48 -22.46,13.98 -33.38,13.98 z m -31.54,80.68 c -2.42,-4.25 -6.68,-7.3 -6.68,-12.76 0,-13.36 12.74,-18.84 25.48,-23.09 l 9.72,2.43 c 1.23,11.54 1.82,17.61 0,29.17 -8.52,0 -20.02,2.42 -28.52,4.25 z m 211.6,224.01 c -14.55,-4.85 -20.01,-18.83 -35.78,-18.83 -13.96,0.01 -19.43,14.58 -33.37,14.58 -18.22,0.01 -22.46,-17.01 -37.59,-26.72 -41.89,-26.73 -74.68,-32.2 -106.82,-70.48 -27.29,-32.18 -78.25,-33.4 -78.25,-75.93 0,-8.5 4.84,-13.36 4.84,-21.86 0,-25.52 -12.13,-38.89 -12.13,-64.4 0,-21.87 27.28,-23.68 36.41,-43.13 26.68,-54.66 67.94,-82.02 129.23,-89.91 35.78,-4.24 40.04,-53.46 75.84,-53.46 4.26,0.01 6.66,4.87 10.92,4.87 41.25,0 63.1,-17.01 104.35,-17.01 19.45,0 26.09,18.22 43.68,24.3 24.89,9.12 44.28,7.29 66.12,21.86 21.88,14.58 27.33,41.31 53.43,41.31 9.68,0.01 15.75,-4.86 25.47,-4.86 34.56,0.01 38.2,42.52 47.92,75.33 8.51,29.17 26.7,43.74 26.7,74.11 v 31.59 c 0,32.2 -33.99,39.48 -44.29,69.86 -13.35,37.66 -18.18,85.66 -58.25,85.66 -16.37,0 -26.09,-4.86 -42.46,-4.86 -20.02,0.01 -27.3,18.23 -47.35,21.87 l -14.54,-4.85 c -41.86,13.35 -70.99,26.71 -114.08,30.96" /><path
         id="path80"
         style="fill:#ed1c24;fill-opacity:1;fill-rule:evenodd;stroke:none"
         d="m 2513.51,5622.13 c 0,0 42.78,-46.72 93.22,-56.43 50.48,-9.72 75.66,-56.34 77.62,-83.54 1.95,-27.19 5.84,-204.09 5.84,-204.09 l 3.88,-54.39 c 0,0 -370.82,19.43 -497.03,-99.17 0,0.01 7.05,110.62 83.53,206.02 95.07,118.6 203.9,124.43 203.9,124.43 v 204.09 l 29.04,-36.92" /><g
         id="g82"><path
           id="path84"
           style="fill:none;stroke:#2e3192;stroke-width:19.84609985;stroke-linecap:butt;stroke-linejoin:miter;stroke-miterlimit:2.61310005;stroke-dasharray:none;stroke-opacity:1"
           d="m 2513.51,5622.13 c 0,0 42.78,-46.72 93.22,-56.43 50.48,-9.71 75.66,-56.34 77.62,-83.54 1.95,-27.19 5.84,-204.09 5.84,-204.09 l 3.88,-54.39 c 0,0 -370.82,19.43 -497.03,-99.17 0,0 7.05,110.62 83.53,206.02 95.07,118.6 203.9,124.43 203.9,124.43 v 204.09 z" /></g><path
         id="path86"
         style="fill:#d8d6d9;fill-opacity:1;fill-rule:evenodd;stroke:none"
         d="m 2329.09,4461.92 -27.73,-95.46 183.11,-131.94 184.65,133.05 -27.73,105.46 -312.3,-11.11" /><g
         id="g88"><path
           id="path90"
           style="fill:none;stroke:#2e3192;stroke-width:14.17199993;stroke-linecap:butt;stroke-linejoin:miter;stroke-miterlimit:2.61310005;stroke-dasharray:none;stroke-opacity:1"
           d="m 2329.09,4461.92 -27.73,-95.46 183.11,-131.94 184.65,133.05 -27.73,105.46 z" /></g><path
         id="path92"
         style="fill:#ffffff;fill-opacity:1;fill-rule:evenodd;stroke:none"
         d="m 2744.25,4765.26 c -4.97,-93.36 -62.13,-150.6 -62.13,-150.6 l 29.81,-77.11 c 0,0 -123.07,-135.7 -237.4,-135.7 -115.62,0 -227.46,138.18 -227.46,138.18 l 32.3,77.13 c 0,0 -60.92,7.45 -70.87,133.19 -9.96,125.73 132.38,208.38 132.38,208.38 0.01,0 -27.7,120.98 38.81,243.3 0,0.01 90.63,20.27 203.15,20.27 5.05,0.01 65.8,81.8 137.36,81.8 0.01,0.01 86.72,-45.6 157.6,-218.61 1.92,-4.69 -18.31,-160.63 -170.83,-206.93 0,0 32.23,-47.41 37.28,-113.3" /><path
         id="path94"
         style="fill:#d8d6d9;fill-opacity:1;fill-rule:evenodd;stroke:none"
         d="m 2744.25,4765.26 c -4.97,-93.36 -62.13,-150.6 -62.13,-150.6 l 29.81,-77.11 c 0,0 -123.07,-135.7 -237.4,-135.7 -115.62,0 -227.46,138.18 -227.46,138.18 l 32.3,77.13 c 0,0 -60.92,7.45 -70.87,133.19 -9.96,125.73 132.38,208.38 132.38,208.38 0,0 -27.7,120.98 38.81,243.3 0,0 90.63,20.27 203.15,20.27 5.05,0.01 65.8,81.8 137.36,81.8 0,0 86.72,-45.6 157.6,-218.61 1.92,-4.69 -18.31,-160.63 -170.83,-206.93 0,0 32.23,-47.41 37.28,-113.3" /><g
         id="g96"><path
           id="path98"
           style="fill:none;stroke:#2e3192;stroke-width:19.84609985;stroke-linecap:butt;stroke-linejoin:miter;stroke-miterlimit:2.61310005;stroke-dasharray:none;stroke-opacity:1"
           d="m 2744.25,4765.26 c -4.97,-93.36 -62.13,-150.6 -62.13,-150.6 l 29.81,-77.11 c 0,0 -123.07,-135.7 -237.4,-135.7 -115.62,0 -227.46,138.18 -227.46,138.18 l 32.3,77.13 c 0,0 -60.92,7.45 -70.87,133.19 -9.96,125.73 132.38,208.38 132.38,208.38 0,0 -27.7,120.98 38.81,243.3 0,0 90.63,20.28 203.15,20.28 5.05,0 65.8,81.79 137.36,81.79 0,0 86.72,-45.6 157.6,-218.61 1.92,-4.69 -18.31,-160.63 -170.83,-206.93 0,0 32.22,-47.41 37.28,-113.3 z" /></g><path
         id="path100"
         style="fill:#ffffff;fill-opacity:1;fill-rule:evenodd;stroke:none"
         d="m 2767.88,4732.93 c -165.31,7.46 -281.69,141.14 -283.41,139.34 -133.04,-139.34 -295.86,-139.34 -295.86,-139.34 v -133.19 c 0,0 231.24,21.21 298.35,-62.2 0,0.01 23.68,79.61 278.47,57.22 l 2.45,138.17" /><path
         id="path102"
         style="fill:#d8d6d9;fill-opacity:1;fill-rule:evenodd;stroke:none"
         d="m 2767.88,4732.93 c -165.31,7.46 -283.41,139.34 -283.41,139.34 -133.04,-139.34 -295.86,-139.34 -295.86,-139.34 v -133.19 c 0,0 231.24,21.21 298.35,-62.2 0,0 23.68,79.61 278.47,57.22 l 2.45,138.17" /><g
         id="g104"><path
           id="path106"
           style="fill:none;stroke:#2e3192;stroke-width:19.84609985;stroke-linecap:butt;stroke-linejoin:miter;stroke-miterlimit:2.61310005;stroke-dasharray:none;stroke-opacity:1"
           d="m 2767.88,4732.93 c -165.31,7.46 -283.41,139.34 -283.41,139.34 -133.04,-139.34 -295.86,-139.34 -295.86,-139.34 v -133.19 c 0,0 231.24,21.21 298.35,-62.2 0,0 23.68,79.61 278.47,57.22 z" /></g><g
         id="g108"><path
           id="path110"
           style="fill:none;stroke:#2e3192;stroke-width:19.84609985;stroke-linecap:butt;stroke-linejoin:miter;stroke-miterlimit:2.61310005;stroke-dasharray:none;stroke-opacity:1"
           d="m 2342.34,4958.73 c 0,0 127.83,101.1 283.61,-10.34 51.65,-36.93 81.16,-71.09 81.16,-71.09" /></g><g
         id="g112"><path
           id="path114"
           style="fill:none;stroke:#2e3192;stroke-width:19.84609985;stroke-linecap:butt;stroke-linejoin:miter;stroke-miterlimit:2.61310005;stroke-dasharray:none;stroke-opacity:1"
           d="m 2581.55,5221.84 c 0,0 -85.6,-88.63 -101.83,-220.28" /></g><g
         id="g116"><path
           id="path118"
           style="fill:none;stroke:#2e3192;stroke-width:19.84609985;stroke-linecap:butt;stroke-linejoin:miter;stroke-miterlimit:2.61310005;stroke-dasharray:none;stroke-opacity:1"
           d="m 2649.56,4926.23 c 0,0 27.32,71.6 86.32,119.11 59.89,43.56 124.81,68.67 142.53,39.12" /></g><path
         id="path120"
         style="fill:#d8d6d9;fill-opacity:1;fill-rule:evenodd;stroke:none"
         d="m 2308.02,4362.02 -157.27,-198.36 333.72,-113.24 328.57,113.24 -152.79,196.14 -352.23,2.22" /><g
         id="g122"><path
           id="path124"
           style="fill:none;stroke:#2e3192;stroke-width:19.84609985;stroke-linecap:butt;stroke-linejoin:miter;stroke-miterlimit:2.61310005;stroke-dasharray:none;stroke-opacity:1"
           d="m 2308.02,4362.02 -157.27,-198.36 333.72,-113.24 328.57,113.24 -152.79,196.14 z" /></g><path
         id="path126"
         style="fill:#ffffff;fill-opacity:1;fill-rule:evenodd;stroke:none"
         d="m 2038.94,4125.91 c 0,0 49.7,54.39 115.14,41.07 65.41,-13.32 330.39,-99.91 330.39,-99.91 0,0 299.77,99.91 326.37,101.02 26.61,1.11 76.66,0 107.55,-38.85 0,0.01 -70.98,-6.76 -182.99,-62.17 -81.3,-40.2 -218.42,-82.44 -250.93,-82.44 -32.51,0.01 -143.23,27.01 -300.45,94.66 -107.06,46.05 -145.08,46.62 -145.08,46.62" /><path
         id="path128"
         style="fill:#d8d6d9;fill-opacity:1;fill-rule:evenodd;stroke:none"
         d="m 2038.94,4125.91 c 0,0 49.7,54.39 115.14,41.07 65.41,-13.32 330.39,-99.91 330.39,-99.91 0,0 299.77,99.91 326.37,101.02 26.61,1.11 76.66,0 107.55,-38.85 0,0 -70.98,-6.76 -182.99,-62.17 -81.3,-40.2 -218.42,-82.44 -250.93,-82.44 -32.51,0.01 -143.23,27.01 -300.45,94.66 -107.06,46.05 -145.08,46.62 -145.08,46.62" /><g
         id="g130"><path
           id="path132"
           style="fill:none;stroke:#2e3192;stroke-width:19.84609985;stroke-linecap:butt;stroke-linejoin:miter;stroke-miterlimit:2.61310005;stroke-dasharray:none;stroke-opacity:1"
           d="m 2038.94,4125.91 c 0,0 49.7,54.39 115.14,41.07 65.41,-13.32 330.39,-99.91 330.39,-99.91 0,0 299.77,99.91 326.37,101.02 26.61,1.11 76.66,0 107.55,-38.85 0,0 -70.98,-6.76 -182.99,-62.17 -81.3,-40.2 -218.42,-82.44 -250.93,-82.44 -32.51,0.01 -143.23,27.02 -300.45,94.66 -107.06,46.05 -145.08,46.62 -145.08,46.62 z" /></g><path
         id="path134"
         style="fill:#ed1c24;fill-opacity:1;fill-rule:evenodd;stroke:none"
         d="m 2426.34,5680.42 c 0,35.38 28.63,64.05 63.96,64.05 35.34,0 63.94,-28.68 63.94,-64.05 0,-35.37 -28.61,-64.04 -63.94,-64.04 -35.32,0 -63.96,28.66 -63.96,64.04" /><g
         id="g136"><path
           id="path138"
           style="fill:none;stroke:#2e3192;stroke-width:13.62300014;stroke-linecap:butt;stroke-linejoin:miter;stroke-miterlimit:2.61310005;stroke-dasharray:none;stroke-opacity:1"
           d="m 2426.34,5680.42 c 0,35.38 28.63,64.05 63.96,64.05 35.34,0 63.94,-28.68 63.94,-64.05 0,-35.36 -28.61,-64.04 -63.94,-64.04 -35.32,0 -63.96,28.66 -63.96,64.04 z" /></g><g
         id="g140"><path
           id="path142"
           style="fill:none;stroke:#2e3192;stroke-width:19.84609985;stroke-linecap:butt;stroke-linejoin:miter;stroke-miterlimit:2.61310005;stroke-dasharray:none;stroke-opacity:1"
           d="m 2484.47,5454.97 c 44.58,9.72 147.48,17.47 199.88,11.66" /></g><path
         id="path144"
         style="fill:#ffffff;fill-opacity:1;fill-rule:evenodd;stroke:none"
         d="m 1163.93,3103.64 -52.98,26.29 c -1.65,0.78 -2.23,1.68 -1.74,2.68 0.54,1.1 2.83,1.53 6.87,1.3 5.53,-0.28 11.56,1.61 18.05,5.63 6.83,4.15 11.94,9.73 15.35,16.8 6.04,12.6 3.66,24.44 -7.16,35.55 -7.41,7.62 -20.16,15.93 -38.3,24.93 -20.88,10.34 -36.97,16.66 -48.25,18.97 -18.92,3.76 -31.94,-1.75 -39.04,-16.55 -3.44,-7.17 -4.59,-15.02 -3.44,-23.53 0.83,-5.59 2.08,-9.7 3.78,-12.33 2.25,-3.72 3.22,-5.9 2.91,-6.57 -0.46,-0.99 -1.64,-1.02 -3.48,-0.12 l -44.211,21.92 c -8.719,17.71 -8.18,36.79 1.637,57.22 7.996,16.68 19.66,28.61 34.964,35.8 15.46,7.25 35.24,7.56 59.41,0.92 17.58,-4.87 37.99,-13.07 61.26,-24.61 36.75,-18.21 61.73,-36.59 74.9,-55.14 6.99,-10.06 10.48,-21.34 10.38,-33.87 -0.11,-12.25 -3.16,-24.63 -9.13,-37.12 -9.02,-18.76 -22.96,-31.5 -41.78,-38.17" /><path
         id="path146"
         style="fill:#ffffff;fill-opacity:1;fill-rule:evenodd;stroke:none"
         d="m 1147.99,2980.06 -187.521,47.52 -11.586,-47.23 -52.828,13.38 25.043,102.12 240.382,-60.87 -13.49,-54.92" /><path
         id="path148"
         style="fill:#ffffff;fill-opacity:1;fill-rule:evenodd;stroke:none"
         d="m 1114.16,2829.23 -163.301,26.29 c -10.019,1.6 -17.296,2.16 -21.785,1.62 -6.738,-0.78 -10.711,-5.18 -11.969,-13.19 -1.441,-9.22 0.973,-15.34 7.25,-18.34 2.821,-1.44 10.508,-3.23 23.043,-5.4 l 161.322,-25.94 -8.74,-55.91 -169.011,27.21 c -19.485,3.13 -33.399,7.36 -41.746,12.7 -12.828,8.15 -21.36,19.73 -25.645,34.72 -3.301,11.73 -3.844,24.94 -1.531,39.63 3.902,24.89 14.207,42.7 30.937,53.44 9.817,6.39 20.379,9.47 31.754,9.27 8.176,-0.19 17.887,-1.2 29.117,-3 l 169.015,-27.2 -8.71,-55.9" /><path
         id="path150"
         style="fill:#ffffff;fill-opacity:1;fill-rule:evenodd;stroke:none"
         d="m 850.691,2683.27 247.359,-13.17 -4.38,-85.61 c -0.99,-18.77 -7.87,-32.44 -20.65,-40.99 -11.05,-7.41 -25.4,-10.65 -43.04,-9.72 -21.73,1.17 -37.464,7.72 -47.128,19.68 -3.649,4.52 -6.844,10.77 -9.59,18.8 -3.387,-9.42 -6.992,-16.37 -10.871,-20.84 -10.075,-11.65 -25.883,-16.89 -47.516,-15.74 -24.629,1.3 -43.109,9.8 -55.395,25.46 -9.437,12.08 -13.589,29.15 -12.429,51.24 z m 147.719,-61.03 c -0.265,-2.57 -0.441,-4.53 -0.512,-5.9 -0.878,-16.92 6.732,-25.82 22.812,-26.68 10.37,-0.54 17.24,2.3 20.61,8.5 2,3.61 3.14,8.27 3.46,14.04 0.07,1.6 0.12,4.11 0.17,7.55 z m -101.328,5.39 c -0.23,-2.08 -0.379,-3.61 -0.434,-4.59 -0.972,-19.38 7.641,-29.57 25.883,-30.55 10.383,-0.55 17.809,1.7 22.336,6.75 3.219,3.53 5.043,9.77 5.504,18.73 0.078,1.46 0.133,3.74 0.149,6.81 l -53.438,2.85" /><path
         id="path152"
         style="fill:#ffffff;fill-opacity:1;fill-rule:evenodd;stroke:none"
         d="m 876.254,2278.22 240.366,60.87 18.93,-77.25 c 5.83,-23.75 2.31,-42.88 -10.59,-57.42 -10.18,-11.31 -22.88,-20.22 -38.13,-26.75 -13.36,-5.52 -27.73,-10.25 -43.11,-14.15 -44.24,-11.2 -79.435,-12.83 -105.572,-4.89 -11.484,3.56 -21.222,10.01 -29.25,19.38 -7.531,8.86 -12.843,19.55 -15.914,32.06 z M 939.5,2238.4 c 0.469,-2.42 0.879,-4.28 1.18,-5.6 3.441,-13.95 12.465,-21.99 27.066,-24.11 12.844,-1.94 29.734,-0.26 50.754,5.06 20.56,5.2 36.12,10.86 46.73,16.95 8.85,5.16 13.58,12.13 14.3,20.92 0.26,4.51 -0.31,9.56 -1.67,15.17 -0.36,1.42 -0.93,3.5 -1.68,6.21 L 939.5,2238.4" /><path
         id="path154"
         style="fill:#ffffff;fill-opacity:1;fill-rule:evenodd;stroke:none"
         d="m 1139.58,2061.98 -37.52,-15.39 25.01,-62.91 -50.49,-20.71 -25.01,62.9 -39.7,-16.3 25.01,-62.91 -50.497,-20.71 -44.977,113.15 229.684,94.27 44.97,-113.16 -51.45,-21.13 -25.03,62.9" /><path
         id="path156"
         style="fill:#ffffff;fill-opacity:1;fill-rule:evenodd;stroke:none"
         d="m 1028.91,1831.7 212.33,129.58 37.57,-63.51 c 22.35,-37.82 10.18,-71.01 -36.6,-99.56 -30.3,-18.47 -56.59,-23.37 -79,-14.65 -10.38,3.98 -20.01,11.58 -28.91,22.77 -2.69,3.38 -6.43,8.85 -11.2,16.41 l -65.3,-39.89 z m 137.77,20.85 c 0.74,-1.55 1.33,-2.63 1.71,-3.26 9.02,-15.27 23.66,-16.74 43.89,-4.4 17.73,10.82 22.57,23.02 14.55,36.62 -0.89,1.47 -2.13,3.3 -3.69,5.49 l -56.46,-34.45" /><path
         id="path158"
         style="fill:#ffffff;fill-opacity:1;fill-rule:evenodd;stroke:none"
         d="m 1388.05,1743.1 c 19.58,-26.39 22.57,-51.49 9,-75.26 -11.07,-19.39 -34.14,-42.52 -69.18,-69.37 -29.01,-22.19 -53.97,-35.6 -74.89,-40.25 -16.05,-3.5 -29.92,-2.7 -41.55,2.37 -10.25,4.46 -20.12,13.05 -29.61,25.82 -13.61,18.36 -19.25,35.74 -16.86,52.16 2.49,18.08 12.81,36.61 31.01,55.6 10.87,11.28 24.33,23.03 40.4,35.3 34.02,26.04 61.77,41.3 83.31,45.78 25.67,5.36 48.48,-5.35 68.37,-32.15 z m -46.57,-33.09 c -6.57,8.81 -16.41,9.75 -29.55,2.76 -10.47,-5.53 -23.02,-13.93 -37.7,-25.16 -19.23,-14.72 -33.07,-27 -41.5,-36.86 -10.33,-12.05 -12.41,-22.19 -6.31,-30.44 4.08,-5.48 10,-7.43 17.74,-5.81 11.33,2.52 29.07,13.01 53.21,31.5 18.56,14.2 31.91,25.8 40.06,34.81 4.82,5.56 7.56,10.64 8.21,15.28 0.72,4.57 -0.67,9.2 -4.16,13.92" /><path
         id="path160"
         style="fill:#ffffff;fill-opacity:1;fill-rule:evenodd;stroke:none"
         d="m 1299.01,1450.11 172.06,181.02 60.47,-59.29 c 4.85,-4.78 8.87,-11.19 12,-19.21 3.12,-8.04 4.54,-15.47 4.22,-22.35 -0.84,-14.89 -9.52,-30.98 -25.99,-48.32 -15.2,-15.99 -29.42,-25.55 -42.62,-28.65 -8.28,-1.97 -17.84,-0.88 -28.68,3.27 l -48.59,-107.37 -40.86,40.08 34.29,72.71 c 5.71,12.18 11.02,20.79 16,25.83 l -1.69,1.66 c -2.29,-2.38 -4.46,-4.76 -6.56,-7.15 -4.04,-4.76 -6.85,-7.99 -8.45,-9.67 l -57.22,-60.19 z m 139.36,68.32 c 2.88,-3.18 5.04,-5.48 6.53,-6.93 10.18,-9.98 21.48,-8.44 33.94,4.64 7.21,7.61 10.23,14.49 9.02,20.63 -0.84,4.42 -3.99,9.27 -9.38,14.57 -0.94,0.95 -2.51,2.39 -4.69,4.35 l -35.42,-37.26" /><path
         id="path162"
         style="fill:#ffffff;fill-opacity:1;fill-rule:evenodd;stroke:none"
         d="m 1651.01,1399.86 -109.29,-158.56 -45.65,32.46 109.29,158.55 -33.88,24.1 32.8,47.57 113.39,-80.67 -32.77,-47.57 -33.89,24.12" /><path
         id="path164"
         style="fill:#ffffff;fill-opacity:1;fill-rule:evenodd;stroke:none"
         d="m 1806.11,1369.38 -127.6,-215.71 -47.74,29.16 127.58,215.68 47.76,-29.13" /><path
         id="path166"
         style="fill:#ffffff;fill-opacity:1;fill-rule:evenodd;stroke:none"
         d="m 1848.04,1346.06 51.05,-25.29 -35.72,-108.85 c -8.82,-27.09 -18.56,-51.67 -29.14,-73.76 -0.75,-1.55 -2.06,-4.12 -3.91,-7.71 l 2.14,-1.05 c 1.04,2.49 1.82,4.23 2.28,5.23 4.4,9.16 10.79,21.08 19.22,35.79 8.41,14.72 15.61,26.51 21.63,35.44 l 63.29,95.2 50.57,-25.06 -146.95,-207.19 -66.85,33.15 72.39,244.1" /><path
         id="path168"
         style="fill:#ffffff;fill-opacity:1;fill-rule:evenodd;stroke:none"
         d="m 2106.69,1246.89 c 31.26,-9.12 48.54,-27.3 51.8,-54.59 2.66,-22.26 -2.07,-54.82 -14.18,-97.71 -10.01,-35.42 -21.99,-61.43 -35.96,-77.93 -10.74,-12.59 -22.24,-20.426 -34.57,-23.48 -10.84,-2.707 -23.82,-1.903 -38.94,2.511 -21.76,6.349 -36.55,16.789 -44.39,31.339 -8.72,15.96 -11.43,37.08 -8.16,63.36 2.01,15.66 5.8,33.29 11.34,52.89 11.74,41.58 24.88,70.75 39.41,87.47 17.33,20.02 41.91,25.38 73.65,16.13 z M 2089.13,1192 c -10.49,3.04 -18.91,-2.26 -25.25,-15.87 -5.07,-10.8 -10.13,-25.17 -15.2,-43.13 -6.64,-23.52 -10.41,-41.79 -11.33,-54.8 -1.1,-15.94 3.26,-25.33 13.02,-28.15 6.51,-1.89 12.39,0.15 17.61,6.19 7.54,8.9 15.48,28.13 23.84,57.68 6.39,22.69 10.18,40.1 11.35,52.29 0.57,7.38 -0.25,13.12 -2.5,17.24 -2.11,4.07 -5.96,6.91 -11.54,8.55" /><path
         id="path170"
         style="fill:#ffffff;fill-opacity:1;fill-rule:evenodd;stroke:none"
         d="m 2492.54,1063.43 -5.42,-105.496 c -8.19,-5.848 -15.52,-10.563 -22.01,-14.157 -13.59,-7.39 -28.47,-10.648 -44.68,-9.808 -32,1.707 -53.69,16.09 -64.98,43.172 -8.65,20.632 -11.81,53.229 -9.5,97.779 2.09,40.13 9.5,70.26 22.28,90.38 7.38,11.79 17.63,20.22 30.76,25.3 11.26,4.58 23.58,6.5 36.98,5.78 24.54,-1.3 42.53,-10.33 54.03,-27.05 l -3.04,-59.27 c -0.14,-2.45 -0.62,-3.67 -1.46,-3.63 -0.72,0.06 -2.16,2.09 -4.23,6.14 -3.64,7.09 -8.9,12.97 -15.79,17.64 -7.41,4.94 -15.43,7.65 -24.15,8.12 -18.24,0.98 -30.24,-8.92 -36.03,-29.65 -3.23,-11.14 -5.53,-29.55 -6.84,-55.19 -1.32,-25.42 0.14,-43.78 4.4,-55.08 3.32,-9.019 10.3,-13.828 21.06,-14.418 2.21,-0.097 4.52,0.281 6.98,1.133 l 4.2,81.345 57.44,-3.04" /><path
         id="path172"
         style="fill:#ffffff;fill-opacity:1;fill-rule:evenodd;stroke:none"
         d="m 2621.12,1196.71 25.86,-165.89 c 1.59,-10.18 3.32,-17.36 5.2,-21.52 2.83,-6.28 8.18,-8.78 16.04,-7.5 9.11,1.45 14.05,5.68 14.91,12.65 0.51,3.2 -0.17,11.17 -2.07,23.92 l -25.53,163.89 55.04,8.85 26.75,-171.69 c 3.11,-19.81 3.44,-34.56 1.03,-44.268 -3.68,-14.906 -11.87,-26.73 -24.6,-35.515 -9.96,-6.797 -22.18,-11.391 -36.64,-13.699 -24.49,-3.958 -44.33,0.484 -59.59,13.339 -8.98,7.532 -15.18,16.782 -18.48,27.848 -2.33,7.957 -4.4,17.635 -6.2,29.015 l -26.75,171.73 55.03,8.84" /><path
         id="path174"
         style="fill:#ffffff;fill-opacity:1;fill-rule:evenodd;stroke:none"
         d="m 2903.79,1056.65 -33.48,-9.75 7.36,-60.22 -54.81,-15.934 -29.37,253.214 84.43,24.6 107.02,-230.59 -55.48,-16.16 z m -18.13,50.14 -25.62,56.03 c -4.02,8.39 -7.88,18.33 -11.63,29.77 l -1.73,-0.49 c 3.09,-12.4 5.12,-22.87 6.05,-31.44 l 7.45,-61.3 25.48,7.43" /><path
         id="path176"
         style="fill:#ffffff;fill-opacity:1;fill-rule:evenodd;stroke:none"
         d="m 3074.19,1046.58 -108.61,226.19 70.47,34.91 c 21.65,10.7 40.79,11.18 57.49,1.39 13.02,-7.77 24.24,-18.54 33.68,-32.32 8.11,-12.12 15.63,-25.42 22.57,-39.89 20,-41.64 28.92,-76.28 26.69,-103.9 -1.02,-12.13 -5.23,-23.16 -12.59,-33.1 -6.94,-9.32 -16.15,-16.82 -27.55,-22.48 z m 25.21,71.16 c 2.23,0.97 3.92,1.74 5.13,2.33 12.71,6.31 18.58,16.93 17.58,31.9 -0.78,13.15 -5.95,29.6 -15.43,49.38 -9.28,19.32 -17.96,33.62 -26.04,42.88 -6.78,7.71 -14.51,11 -23.1,9.88 -4.4,-0.68 -9.15,-2.28 -14.28,-4.8 -1.27,-0.66 -3.17,-1.65 -5.6,-3 l 61.74,-128.57" /><path
         id="path178"
         style="fill:#ffffff;fill-opacity:1;fill-rule:evenodd;stroke:none"
         d="m 3314.82,1240.68 -29.9,-18.23 22.46,-56.19 -48.82,-29.82 -92.93,236.85 75.31,45.97 162.1,-194.62 -49.45,-30.19 z m -30.3,43.67 -39.02,47.37 c -6.04,7.07 -12.31,15.64 -18.81,25.73 l -1.56,-0.96 c 6.18,-11.14 10.79,-20.73 13.84,-28.76 l 22.88,-57.24 22.67,13.86" /><path
         id="path180"
         style="fill:#ffffff;fill-opacity:1;fill-rule:evenodd;stroke:none"
         d="m 3355.57,1504.9 116.31,-156.78 38.28,29.29 32.75,-44.18 -82.77,-63.35 -149.06,200.97 44.49,34.05" /><path
         id="path182"
         style="fill:#ffffff;fill-opacity:1;fill-rule:evenodd;stroke:none"
         d="m 3635.89,1511.05 -23.31,-26.32 37.64,-47.07 -38.11,-43.01 -157.01,198.92 58.77,66.3 211.03,-137.95 -38.61,-43.57 z m -41.51,32.77 -50.95,33.71 c -7.8,4.97 -16.27,11.31 -25.42,19 l -1.19,-1.37 c 9.12,-8.82 16.27,-16.63 21.5,-23.4 l 38.35,-47.94 17.71,20" /><path
         id="path184"
         style="fill:#ffffff;fill-opacity:1;fill-rule:evenodd;stroke:none"
         d="m 3619.03,1792.14 149.27,-114.28 c 14.01,-10.72 23.1,-22.86 27.33,-36.38 5.48,-17.91 2.16,-35.06 -9.99,-51.44 -9.31,-12.56 -22.69,-21.19 -40.09,-25.88 l -34.05,26.07 c -1.76,1.34 -2.35,2.41 -1.76,3.19 0.21,0.29 1.74,0.59 4.53,0.91 8,0.97 14.54,4.88 19.65,11.74 5.89,7.95 6.12,15.93 0.69,23.93 -2.59,3.84 -5.45,6.94 -8.55,9.32 l -11.01,8.43 -129.56,99.19 33.54,45.2" /><path
         id="path186"
         style="fill:#ffffff;fill-opacity:1;fill-rule:evenodd;stroke:none"
         d="m 3857.41,1818.05 -17.97,-30.33 45.8,-38.93 -29.34,-49.62 -191.49,164.84 45.23,76.47 233.09,-94.51 -29.73,-50.25 z m -46.93,24.1 -56.34,23.23 c -8.58,3.37 -18.1,7.94 -28.51,13.73 l -0.95,-1.57 c 10.62,-6.91 19.12,-13.18 25.51,-18.81 l 46.65,-39.65 13.64,23.07" /><path
         id="path188"
         style="fill:#ffffff;fill-opacity:1;fill-rule:evenodd;stroke:none"
         d="m 3982.92,1936.84 -232.76,86.07 28.74,80.18 c 2.31,6.46 6.46,12.8 12.38,18.96 5.97,6.19 12.06,10.52 18.38,13.04 13.73,5.24 31.73,3.75 54.03,-4.48 20.57,-7.61 34.95,-16.92 43.11,-27.91 5.13,-6.86 8.04,-16.18 8.72,-27.93 l 116.34,-1.43 -19.43,-54.21 -79.32,2.26 c -13.29,0.32 -23.21,1.75 -29.75,4.31 l -0.81,-2.25 c 3.07,-1.13 6.09,-2.19 9.09,-3.18 5.93,-1.78 9.97,-3.09 12.13,-3.88 l 77.4,-28.62 z m -118.11,101.55 c 1.7,3.95 2.88,6.9 3.56,8.87 4.86,13.52 -1.13,23.38 -17.96,29.59 -9.75,3.62 -17.18,3.6 -22.2,-0.01 -3.64,-2.59 -6.74,-7.47 -9.3,-14.61 -0.46,-1.27 -1.13,-3.32 -2.03,-6.14 l 47.93,-17.7" /><path
         id="path190"
         style="fill:#ffffff;fill-opacity:1;fill-rule:evenodd;stroke:none"
         d="m 4015.95,2239.55 -8.42,-34.34 54.99,-23.63 -13.79,-56.16 -230.56,100.78 21.22,86.58 250.12,-21.18 -13.96,-56.9 z m -51.82,9.14 -60.55,5.45 c -9.19,0.68 -19.6,2.24 -31.24,4.68 l -0.41,-1.8 c 12.1,-3.45 22.05,-6.91 29.78,-10.38 l 56.03,-24.07 6.39,26.12" /><path
         id="path192"
         style="fill:#ffffff;fill-opacity:1;fill-rule:evenodd;stroke:none"
         d="m 4046.9,2372.71 7.15,45.72 c 5.31,-0.5 9.19,-0.93 11.71,-1.34 16.05,-2.58 34.24,-9.07 54.68,-19.43 4.56,-2.24 14.83,-7.8 30.83,-16.72 l -5.61,-36.06 c -30.99,13.44 -58.07,22.03 -81.23,25.77 -5.24,0.84 -11.1,1.52 -17.53,2.06" /><path
         id="path194"
         style="fill:#ffffff;fill-opacity:1;fill-rule:evenodd;stroke:none"
         d="m 4031.84,2879.11 5.41,-34.97 59.74,0.1 8.92,-57.17 -251.02,1.22 -13.73,88.13 238.36,79.78 9.03,-57.89 z m -51.22,-12.16 -57.85,-19.02 c -8.71,-3.03 -18.89,-5.72 -30.54,-8.09 l 0.3,-1.82 c 12.48,1.64 22.96,2.39 31.44,2.25 l 60.81,0.09 -4.16,26.59" /><path
         id="path196"
         style="fill:#ffffff;fill-opacity:1;fill-rule:evenodd;stroke:none"
         d="m 4002.19,3045.99 c -2.83,10.04 -2.1,18.11 2.21,24.22 2.98,4.19 8.54,7.46 16.67,9.85 18.27,5.33 29.98,-1.25 35.18,-19.68 5.12,-17.94 -1.5,-29.58 -19.79,-34.91 -17.53,-5.1 -28.97,1.73 -34.27,20.52" /><path
         id="path198"
         style="fill:#ffffff;fill-opacity:1;fill-rule:evenodd;stroke:none"
         d="m 3759.76,3198.46 55.44,20.5 c 1.68,0.62 2.73,0.41 3.1,-0.62 0.4,-1.16 -0.88,-3.14 -3.86,-5.95 -4.03,-3.83 -6.89,-9.53 -8.58,-17.08 -1.79,-7.86 -1.38,-15.5 1.25,-22.89 4.72,-13.16 14.77,-19.65 30.18,-19.46 10.51,0.09 25.27,3.66 44.23,10.68 21.84,8.08 37.48,15.43 46.96,22.07 15.82,11.21 20.95,24.55 15.38,40.03 -2.66,7.5 -7.44,13.78 -14.28,18.85 -4.5,3.29 -8.3,5.21 -11.36,5.8 -4.19,0.94 -6.4,1.74 -6.66,2.43 -0.36,1.06 0.42,1.93 2.36,2.63 l 46.2,17.1 c 18.63,-5.94 31.75,-19.6 39.38,-40.96 6.29,-17.43 6.64,-34.24 1.08,-50.42 -5.58,-16.31 -19.15,-30.99 -40.6,-44.03 -15.65,-9.45 -35.65,-18.69 -60,-27.68 -38.43,-14.21 -68.77,-19.69 -91.07,-16.41 -11.96,1.84 -22.38,7.15 -31.19,15.92 -8.61,8.6 -15.26,19.41 -19.92,32.46 -7.04,19.63 -6.38,38.64 1.96,57.03" /><path
         id="path200"
         style="fill:#ffffff;fill-opacity:1;fill-rule:evenodd;stroke:none"
         d="m 3879.88,3351.8 c -4.49,9.39 -5.13,17.47 -1.94,24.26 2.23,4.66 7.11,8.85 14.73,12.63 17.07,8.45 29.74,4.07 38.04,-13.15 8.06,-16.8 3.54,-29.41 -13.53,-37.89 -16.43,-8.13 -28.84,-3.41 -37.3,14.15" /><path
         id="path202"
         style="fill:#ed1c24;fill-opacity:1;fill-rule:evenodd;stroke:none"
         d="m 2488.81,558.738 68.49,-212.172 222.95,0.43 L 2599.63,216.297 2668.93,4.38672 2488.81,135.781 2308.69,4.38672 l 69.3,211.91028 -180.62,130.699 222.95,-0.43 68.49,212.172" /><path
         id="path204"
         style="fill:#2862a8;fill-opacity:1;fill-rule:evenodd;stroke:none"
         d="m 1733.71,607.121 22.07,-153.937 153.33,-26.004 -139.59,-68.559 22.66,-153.855 -108.34,111.566 -139.33,-69.09 72.63,137.516 -108.76,111.168 153.23,-26.59 72.1,137.785" /><path
         id="path206"
         style="fill:#2862a8;fill-opacity:1;fill-rule:evenodd;stroke:none"
         d="m 3250.98,605.379 -22.06,-153.945 -153.33,-25.996 139.59,-68.555 -22.65,-153.856 108.33,111.571 139.33,-69.09 -72.64,137.512 108.77,111.156 -153.23,-26.586 -72.11,137.789" /><path
         id="path208"
         style="fill:#2862a8;fill-opacity:1;fill-rule:evenodd;stroke:none"
         d="m 3866.98,985.727 51.35,-146.797 -124.1,-93.727 155.48,3.473 50.79,-146.981 44.74,148.938 155.48,2.875 -127.81,88.57 45.3,148.777 -123.74,-94.195 -127.49,89.067" /><path
         id="path210"
         style="fill:#2862a8;fill-opacity:1;fill-rule:evenodd;stroke:none"
         d="m 1122.25,985.723 -51.35,-146.793 124.11,-93.723 -155.48,3.473 -50.788,-146.992 -44.738,148.945 -155.492,2.875 127.828,88.578 -45.313,148.769 123.743,-94.199 127.48,89.067" /><path
         id="path212"
         style="fill:#2862a8;fill-opacity:1;fill-rule:evenodd;stroke:none"
         d="M 662.48,1518.55 561.426,1400.34 643.137,1268.02 499.488,1327.59 398.887,1209 l 12.269,155.03 -143.883,59.02 151.243,36.24 11.679,155.08 81.196,-132.63 151.089,36.81" /><path
         id="path214"
         style="fill:#2862a8;fill-opacity:1;fill-rule:evenodd;stroke:none"
         d="m 4319.84,1518.55 101.05,-118.21 -81.71,-132.32 143.65,59.57 100.6,-118.59 -12.27,155.03 143.88,59.02 -151.23,36.24 -11.68,155.08 -81.2,-132.64 -151.09,36.82" /><path
         id="path216"
         style="fill:#2862a8;fill-opacity:1;fill-rule:evenodd;stroke:none"
         d="m 4563.1,2190.21 136.53,-74.46 -29.22,-152.74 113,106.83 136.25,-74.99 -66.68,140.49 113.41,106.4 -154.22,-19.99 -66.14,140.74 -28.64,-152.86 -154.29,-19.42" /><path
         id="path218"
         style="fill:#2862a8;fill-opacity:1;fill-rule:evenodd;stroke:none"
         d="m 4569.13,2879.32 154.96,-13.12 34.84,-151.57 60.35,143.33 154.92,-13.69 -117.67,101.68 60.92,143.1 -133.09,-80.47 -117.27,102.13 35.42,-151.43 -133.38,-79.96" /><path
         id="path220"
         style="fill:#2862a8;fill-opacity:1;fill-rule:evenodd;stroke:none"
         d="M 407.543,2190.22 271.012,2115.75 300.23,1963 187.219,2069.84 50.9766,1994.85 117.664,2135.34 4.24219,2241.75 158.469,2221.74 l 66.14,140.75 28.633,-152.86 154.301,-19.41" /><path
         id="path222"
         style="fill:#2862a8;fill-opacity:1;fill-rule:evenodd;stroke:none"
         d="m 415.344,2879.32 -154.961,-13.12 -34.836,-151.56 -60.356,143.32 -154.9097,-13.7 117.6637,101.69 -60.9098,143.1 133.0738,-80.48 117.27,102.14 -35.414,-151.43 133.379,-79.96" /></g></g></svg>